<?xml version="1.0" encoding="utf-8" standalone="no"?>
<!DOCTYPE svg PUBLIC "-//W3C//DTD SVG 1.1//EN"
  "http://www.w3.org/Graphics/SVG/1.1/DTD/svg11.dtd">
<svg xmlns:xlink="http://www.w3.org/1999/xlink" width="648pt" height="432pt" viewBox="0 0 648 432" xmlns="http://www.w3.org/2000/svg" version="1.1">
 <metadata>
  <rdf:RDF xmlns:dc="http://purl.org/dc/elements/1.1/" xmlns:cc="http://creativecommons.org/ns#" xmlns:rdf="http://www.w3.org/1999/02/22-rdf-syntax-ns#">
   <cc:Work>
    <dc:type rdf:resource="http://purl.org/dc/dcmitype/StillImage"/>
    <dc:date>2022-04-22T22:18:44.821632</dc:date>
    <dc:format>image/svg+xml</dc:format>
    <dc:creator>
     <cc:Agent>
      <dc:title>Matplotlib v3.5.1, https://matplotlib.org/</dc:title>
     </cc:Agent>
    </dc:creator>
   </cc:Work>
  </rdf:RDF>
 </metadata>
 <defs>
  <style type="text/css">*{stroke-linejoin: round; stroke-linecap: butt}</style>
 </defs>
 <g id="figure_1">
  <g id="patch_1">
   <path d="M 0 432 
L 648 432 
L 648 0 
L 0 0 
z
" style="fill: #ffffff"/>
  </g>
  <g id="axes_1">
   <g id="patch_2">
    <path d="M 81 124.153043 
L 583.2 124.153043 
L 583.2 51.84 
L 81 51.84 
z
" style="fill: #ffffff"/>
   </g>
   <g id="matplotlib.axis_1">
    <g id="xtick_1">
     <g id="line2d_1">
      <defs>
       <path id="m4c430e24b4" d="M 0 0 
L 0 3.5 
" style="stroke: #000000; stroke-width: 0.8"/>
      </defs>
      <g>
       <use xlink:href="#m4c430e24b4" x="106.205114" y="124.153043" style="stroke: #000000; stroke-width: 0.8"/>
      </g>
     </g>
    </g>
    <g id="xtick_2">
     <g id="line2d_2">
      <g>
       <use xlink:href="#m4c430e24b4" x="220.341477" y="124.153043" style="stroke: #000000; stroke-width: 0.8"/>
      </g>
     </g>
    </g>
    <g id="xtick_3">
     <g id="line2d_3">
      <g>
       <use xlink:href="#m4c430e24b4" x="334.477841" y="124.153043" style="stroke: #000000; stroke-width: 0.8"/>
      </g>
     </g>
    </g>
    <g id="xtick_4">
     <g id="line2d_4">
      <g>
       <use xlink:href="#m4c430e24b4" x="448.614205" y="124.153043" style="stroke: #000000; stroke-width: 0.8"/>
      </g>
     </g>
    </g>
    <g id="xtick_5">
     <g id="line2d_5">
      <g>
       <use xlink:href="#m4c430e24b4" x="557.994886" y="124.153043" style="stroke: #000000; stroke-width: 0.8"/>
      </g>
     </g>
    </g>
   </g>
   <g id="matplotlib.axis_2">
    <g id="ytick_1">
     <g id="line2d_6">
      <defs>
       <path id="m0fc4d11947" d="M 0 0 
L -3.5 0 
" style="stroke: #000000; stroke-width: 0.8"/>
      </defs>
      <g>
       <use xlink:href="#m0fc4d11947" x="81" y="120.866087" style="stroke: #000000; stroke-width: 0.8"/>
      </g>
     </g>
     <g id="text_1">
      <!-- 0.0 -->
      <g transform="translate(58.096875 124.665306)scale(0.1 -0.1)">
       <defs>
        <path id="DejaVuSans-30" d="M 2034 4250 
Q 1547 4250 1301 3770 
Q 1056 3291 1056 2328 
Q 1056 1369 1301 889 
Q 1547 409 2034 409 
Q 2525 409 2770 889 
Q 3016 1369 3016 2328 
Q 3016 3291 2770 3770 
Q 2525 4250 2034 4250 
z
M 2034 4750 
Q 2819 4750 3233 4129 
Q 3647 3509 3647 2328 
Q 3647 1150 3233 529 
Q 2819 -91 2034 -91 
Q 1250 -91 836 529 
Q 422 1150 422 2328 
Q 422 3509 836 4129 
Q 1250 4750 2034 4750 
z
" transform="scale(0.015625)"/>
        <path id="DejaVuSans-2e" d="M 684 794 
L 1344 794 
L 1344 0 
L 684 0 
L 684 794 
z
" transform="scale(0.015625)"/>
       </defs>
       <use xlink:href="#DejaVuSans-30"/>
       <use xlink:href="#DejaVuSans-2e" x="63.623047"/>
       <use xlink:href="#DejaVuSans-30" x="95.410156"/>
      </g>
     </g>
    </g>
    <g id="ytick_2">
     <g id="line2d_7">
      <g>
       <use xlink:href="#m0fc4d11947" x="81" y="88.864658" style="stroke: #000000; stroke-width: 0.8"/>
      </g>
     </g>
     <g id="text_2">
      <!-- 2.0 -->
      <g transform="translate(58.096875 92.663877)scale(0.1 -0.1)">
       <defs>
        <path id="DejaVuSans-32" d="M 1228 531 
L 3431 531 
L 3431 0 
L 469 0 
L 469 531 
Q 828 903 1448 1529 
Q 2069 2156 2228 2338 
Q 2531 2678 2651 2914 
Q 2772 3150 2772 3378 
Q 2772 3750 2511 3984 
Q 2250 4219 1831 4219 
Q 1534 4219 1204 4116 
Q 875 4013 500 3803 
L 500 4441 
Q 881 4594 1212 4672 
Q 1544 4750 1819 4750 
Q 2544 4750 2975 4387 
Q 3406 4025 3406 3419 
Q 3406 3131 3298 2873 
Q 3191 2616 2906 2266 
Q 2828 2175 2409 1742 
Q 1991 1309 1228 531 
z
" transform="scale(0.015625)"/>
       </defs>
       <use xlink:href="#DejaVuSans-32"/>
       <use xlink:href="#DejaVuSans-2e" x="63.623047"/>
       <use xlink:href="#DejaVuSans-30" x="95.410156"/>
      </g>
     </g>
    </g>
    <g id="ytick_3">
     <g id="line2d_8">
      <g>
       <use xlink:href="#m0fc4d11947" x="81" y="56.863229" style="stroke: #000000; stroke-width: 0.8"/>
      </g>
     </g>
     <g id="text_3">
      <!-- 4.0 -->
      <g transform="translate(58.096875 60.662448)scale(0.1 -0.1)">
       <defs>
        <path id="DejaVuSans-34" d="M 2419 4116 
L 825 1625 
L 2419 1625 
L 2419 4116 
z
M 2253 4666 
L 3047 4666 
L 3047 1625 
L 3713 1625 
L 3713 1100 
L 3047 1100 
L 3047 0 
L 2419 0 
L 2419 1100 
L 313 1100 
L 313 1709 
L 2253 4666 
z
" transform="scale(0.015625)"/>
       </defs>
       <use xlink:href="#DejaVuSans-34"/>
       <use xlink:href="#DejaVuSans-2e" x="63.623047"/>
       <use xlink:href="#DejaVuSans-30" x="95.410156"/>
      </g>
     </g>
    </g>
    <g id="text_4">
     <!-- Power [kW] -->
     <g transform="translate(52.017187 116.440272)rotate(-90)scale(0.1 -0.1)">
      <defs>
       <path id="DejaVuSans-50" d="M 1259 4147 
L 1259 2394 
L 2053 2394 
Q 2494 2394 2734 2622 
Q 2975 2850 2975 3272 
Q 2975 3691 2734 3919 
Q 2494 4147 2053 4147 
L 1259 4147 
z
M 628 4666 
L 2053 4666 
Q 2838 4666 3239 4311 
Q 3641 3956 3641 3272 
Q 3641 2581 3239 2228 
Q 2838 1875 2053 1875 
L 1259 1875 
L 1259 0 
L 628 0 
L 628 4666 
z
" transform="scale(0.015625)"/>
       <path id="DejaVuSans-6f" d="M 1959 3097 
Q 1497 3097 1228 2736 
Q 959 2375 959 1747 
Q 959 1119 1226 758 
Q 1494 397 1959 397 
Q 2419 397 2687 759 
Q 2956 1122 2956 1747 
Q 2956 2369 2687 2733 
Q 2419 3097 1959 3097 
z
M 1959 3584 
Q 2709 3584 3137 3096 
Q 3566 2609 3566 1747 
Q 3566 888 3137 398 
Q 2709 -91 1959 -91 
Q 1206 -91 779 398 
Q 353 888 353 1747 
Q 353 2609 779 3096 
Q 1206 3584 1959 3584 
z
" transform="scale(0.015625)"/>
       <path id="DejaVuSans-77" d="M 269 3500 
L 844 3500 
L 1563 769 
L 2278 3500 
L 2956 3500 
L 3675 769 
L 4391 3500 
L 4966 3500 
L 4050 0 
L 3372 0 
L 2619 2869 
L 1863 0 
L 1184 0 
L 269 3500 
z
" transform="scale(0.015625)"/>
       <path id="DejaVuSans-65" d="M 3597 1894 
L 3597 1613 
L 953 1613 
Q 991 1019 1311 708 
Q 1631 397 2203 397 
Q 2534 397 2845 478 
Q 3156 559 3463 722 
L 3463 178 
Q 3153 47 2828 -22 
Q 2503 -91 2169 -91 
Q 1331 -91 842 396 
Q 353 884 353 1716 
Q 353 2575 817 3079 
Q 1281 3584 2069 3584 
Q 2775 3584 3186 3129 
Q 3597 2675 3597 1894 
z
M 3022 2063 
Q 3016 2534 2758 2815 
Q 2500 3097 2075 3097 
Q 1594 3097 1305 2825 
Q 1016 2553 972 2059 
L 3022 2063 
z
" transform="scale(0.015625)"/>
       <path id="DejaVuSans-72" d="M 2631 2963 
Q 2534 3019 2420 3045 
Q 2306 3072 2169 3072 
Q 1681 3072 1420 2755 
Q 1159 2438 1159 1844 
L 1159 0 
L 581 0 
L 581 3500 
L 1159 3500 
L 1159 2956 
Q 1341 3275 1631 3429 
Q 1922 3584 2338 3584 
Q 2397 3584 2469 3576 
Q 2541 3569 2628 3553 
L 2631 2963 
z
" transform="scale(0.015625)"/>
       <path id="DejaVuSans-20" transform="scale(0.015625)"/>
       <path id="DejaVuSans-5b" d="M 550 4863 
L 1875 4863 
L 1875 4416 
L 1125 4416 
L 1125 -397 
L 1875 -397 
L 1875 -844 
L 550 -844 
L 550 4863 
z
" transform="scale(0.015625)"/>
       <path id="DejaVuSans-6b" d="M 581 4863 
L 1159 4863 
L 1159 1991 
L 2875 3500 
L 3609 3500 
L 1753 1863 
L 3688 0 
L 2938 0 
L 1159 1709 
L 1159 0 
L 581 0 
L 581 4863 
z
" transform="scale(0.015625)"/>
       <path id="DejaVuSans-57" d="M 213 4666 
L 850 4666 
L 1831 722 
L 2809 4666 
L 3519 4666 
L 4500 722 
L 5478 4666 
L 6119 4666 
L 4947 0 
L 4153 0 
L 3169 4050 
L 2175 0 
L 1381 0 
L 213 4666 
z
" transform="scale(0.015625)"/>
       <path id="DejaVuSans-5d" d="M 1947 4863 
L 1947 -844 
L 622 -844 
L 622 -397 
L 1369 -397 
L 1369 4416 
L 622 4416 
L 622 4863 
L 1947 4863 
z
" transform="scale(0.015625)"/>
      </defs>
      <use xlink:href="#DejaVuSans-50"/>
      <use xlink:href="#DejaVuSans-6f" x="56.677734"/>
      <use xlink:href="#DejaVuSans-77" x="117.859375"/>
      <use xlink:href="#DejaVuSans-65" x="199.646484"/>
      <use xlink:href="#DejaVuSans-72" x="261.169922"/>
      <use xlink:href="#DejaVuSans-20" x="302.283203"/>
      <use xlink:href="#DejaVuSans-5b" x="334.070312"/>
      <use xlink:href="#DejaVuSans-6b" x="373.083984"/>
      <use xlink:href="#DejaVuSans-57" x="430.994141"/>
      <use xlink:href="#DejaVuSans-5d" x="529.871094"/>
     </g>
    </g>
   </g>
   <g id="line2d_9">
    <path d="M 106.205114 114.34821 
L 110.960795 114.112107 
L 115.716477 114.677323 
L 120.472159 114.756024 
L 125.227841 115.027901 
L 129.983523 114.823993 
L 134.739205 114.766756 
L 139.494886 114.58789 
L 144.250568 114.616509 
L 149.00625 114.53423 
L 153.761932 114.358941 
L 158.517614 114.226581 
L 163.273295 114.004787 
L 168.028977 114.430488 
L 172.784659 114.287395 
L 177.540341 114.423333 
L 182.296023 113.78657 
L 187.051705 114.212271 
L 191.807386 114.466261 
L 196.563068 114.290973 
L 201.31875 114.476993 
L 206.074432 114.015519 
L 210.830114 114.212271 
L 215.585795 114.248045 
L 220.341477 114.305282 
L 225.097159 114.137148 
L 229.852841 113.979746 
L 234.608523 113.754374 
L 239.364205 113.654209 
L 244.119886 114.54854 
L 248.875568 114.305282 
L 253.63125 114.126416 
L 258.386932 113.189158 
L 263.142614 113.679251 
L 267.898295 113.625591 
L 272.653977 113.629168 
L 277.409659 113.307209 
L 282.165341 111.536436 
L 286.921023 112.337756 
L 291.676705 112.473694 
L 296.432386 113.060374 
L 301.188068 113.371601 
L 305.94375 113.153385 
L 310.699432 113.393065 
L 315.455114 114.104952 
L 320.210795 112.978096 
L 324.966477 114.44122 
L 329.722159 113.554045 
L 334.477841 114.630818 
L 339.233523 114.852612 
L 343.989205 113.904622 
L 348.744886 114.369673 
L 353.500568 113.922508 
L 358.25625 114.019096 
L 363.011932 114.591467 
L 367.767614 114.305282 
L 372.523295 112.792075 
L 377.278977 112.259054 
L 382.034659 113.607704 
L 386.790341 112.767034 
L 391.546023 112.212549 
L 396.301705 114.09422 
L 401.057386 111.579364 
L 405.813068 113.156962 
L 410.56875 112.581014 
L 415.324432 112.445075 
L 420.080114 113.375179 
L 424.835795 112.445075 
L 429.591477 112.584591 
L 434.347159 113.046065 
L 439.102841 112.89224 
L 443.858523 111.489931 
L 448.614205 111.167972 
L 453.369886 111.826199 
L 458.125568 112.234013 
L 462.88125 112.344911 
L 467.636932 112.924436 
L 472.392614 112.627519 
L 477.148295 113.675674 
L 481.903977 113.672096 
L 486.659659 113.414529 
L 491.415341 113.797302 
L 496.171023 112.906549 
L 500.926705 113.432416 
L 505.682386 113.371601 
L 510.438068 113.532581 
L 515.19375 113.564777 
L 519.949432 114.2552 
L 524.705114 114.612931 
L 529.460795 113.943972 
L 534.216477 113.836653 
L 538.972159 113.78657 
L 543.727841 113.707869 
L 548.483523 113.582663 
L 553.239205 113.936818 
L 557.994886 114.026251 
" clip-path="url(#p64ecd80d09)" style="fill: none; stroke: #004079; stroke-width: 1.5; stroke-linecap: square"/>
   </g>
   <g id="line2d_10">
    <path d="M 106.205114 120.866087 
L 110.960795 120.866087 
L 115.716477 120.866087 
L 120.472159 120.866087 
L 125.227841 120.866087 
L 129.983523 120.866087 
L 134.739205 120.866087 
L 139.494886 120.866087 
L 144.250568 120.866087 
L 149.00625 120.866087 
L 153.761932 120.866087 
L 158.517614 120.866087 
L 163.273295 120.866087 
L 168.028977 120.866087 
L 172.784659 120.866087 
L 177.540341 120.866087 
L 182.296023 120.866087 
L 187.051705 120.866087 
L 191.807386 120.866087 
L 196.563068 120.866087 
L 201.31875 120.866087 
L 206.074432 120.866087 
L 210.830114 120.866087 
L 215.585795 120.866087 
L 220.341477 120.866087 
L 225.097159 120.866087 
L 229.852841 120.866087 
L 234.608523 120.866087 
L 239.364205 120.866087 
L 244.119886 120.866087 
L 248.875568 120.866087 
L 253.63125 120.866087 
L 258.386932 120.208696 
L 263.142614 117.907826 
L 267.898295 113.963478 
L 272.653977 110.676523 
L 277.409659 109.033044 
L 282.165341 106.403479 
L 286.921023 104.10261 
L 291.676705 98.843479 
L 296.432386 90.954785 
L 301.188068 85.695653 
L 305.94375 83.394785 
L 310.699432 83.394785 
L 315.455114 72.219134 
L 320.210795 68.274786 
L 324.966477 83.066091 
L 329.722159 73.533915 
L 334.477841 62.358264 
L 339.233523 55.784349 
L 343.989205 64.659132 
L 348.744886 61.043482 
L 353.500568 65.973917 
L 358.25625 55.126957 
L 363.011932 56.770436 
L 367.767614 57.756523 
L 372.523295 72.876522 
L 377.278977 79.121743 
L 382.034659 84.380872 
L 386.790341 81.422611 
L 391.546023 73.862609 
L 396.301705 58.085221 
L 401.057386 85.038261 
L 405.813068 81.751305 
L 410.56875 85.695653 
L 415.324432 94.570436 
L 420.080114 88.982611 
L 424.835795 97.528697 
L 429.591477 105.746088 
L 434.347159 110.347826 
L 439.102841 108.375652 
L 443.858523 114.292174 
L 448.614205 118.236522 
L 453.369886 120.537391 
L 458.125568 120.866087 
L 462.88125 120.866087 
L 467.636932 120.866087 
L 472.392614 120.866087 
L 477.148295 120.866087 
L 481.903977 120.866087 
L 486.659659 120.866087 
L 491.415341 120.866087 
L 496.171023 120.866087 
L 500.926705 120.866087 
L 505.682386 120.866087 
L 510.438068 120.866087 
L 515.19375 120.866087 
L 519.949432 120.866087 
L 524.705114 120.866087 
L 529.460795 120.866087 
L 534.216477 120.866087 
L 538.972159 120.866087 
L 543.727841 120.866087 
L 548.483523 120.866087 
L 553.239205 120.866087 
L 557.994886 120.866087 
" clip-path="url(#p64ecd80d09)" style="fill: none; stroke: #51bceb; stroke-width: 1.5; stroke-linecap: square"/>
   </g>
   <g id="patch_3">
    <path d="M 81 124.153043 
L 81 51.84 
" style="fill: none; stroke: #000000; stroke-width: 0.8; stroke-linejoin: miter; stroke-linecap: square"/>
   </g>
   <g id="patch_4">
    <path d="M 583.2 124.153043 
L 583.2 51.84 
" style="fill: none; stroke: #000000; stroke-width: 0.8; stroke-linejoin: miter; stroke-linecap: square"/>
   </g>
   <g id="patch_5">
    <path d="M 81 124.153043 
L 583.2 124.153043 
" style="fill: none; stroke: #000000; stroke-width: 0.8; stroke-linejoin: miter; stroke-linecap: square"/>
   </g>
   <g id="patch_6">
    <path d="M 81 51.84 
L 583.2 51.84 
" style="fill: none; stroke: #000000; stroke-width: 0.8; stroke-linejoin: miter; stroke-linecap: square"/>
   </g>
   <g id="legend_1">
    <g id="patch_7">
     <path d="M 520.207813 89.19625 
L 576.2 89.19625 
Q 578.2 89.19625 578.2 87.19625 
L 578.2 58.84 
Q 578.2 56.84 576.2 56.84 
L 520.207813 56.84 
Q 518.207813 56.84 518.207813 58.84 
L 518.207813 87.19625 
Q 518.207813 89.19625 520.207813 89.19625 
z
" style="fill: #ffffff; opacity: 0.8; stroke: #cccccc; stroke-linejoin: miter"/>
    </g>
    <g id="line2d_11">
     <path d="M 522.207813 64.938437 
L 532.207813 64.938437 
L 542.207813 64.938437 
" style="fill: none; stroke: #004079; stroke-width: 1.5; stroke-linecap: square"/>
    </g>
    <g id="text_5">
     <!-- Load -->
     <g transform="translate(550.207813 68.438437)scale(0.1 -0.1)">
      <defs>
       <path id="DejaVuSans-4c" d="M 628 4666 
L 1259 4666 
L 1259 531 
L 3531 531 
L 3531 0 
L 628 0 
L 628 4666 
z
" transform="scale(0.015625)"/>
       <path id="DejaVuSans-61" d="M 2194 1759 
Q 1497 1759 1228 1600 
Q 959 1441 959 1056 
Q 959 750 1161 570 
Q 1363 391 1709 391 
Q 2188 391 2477 730 
Q 2766 1069 2766 1631 
L 2766 1759 
L 2194 1759 
z
M 3341 1997 
L 3341 0 
L 2766 0 
L 2766 531 
Q 2569 213 2275 61 
Q 1981 -91 1556 -91 
Q 1019 -91 701 211 
Q 384 513 384 1019 
Q 384 1609 779 1909 
Q 1175 2209 1959 2209 
L 2766 2209 
L 2766 2266 
Q 2766 2663 2505 2880 
Q 2244 3097 1772 3097 
Q 1472 3097 1187 3025 
Q 903 2953 641 2809 
L 641 3341 
Q 956 3463 1253 3523 
Q 1550 3584 1831 3584 
Q 2591 3584 2966 3190 
Q 3341 2797 3341 1997 
z
" transform="scale(0.015625)"/>
       <path id="DejaVuSans-64" d="M 2906 2969 
L 2906 4863 
L 3481 4863 
L 3481 0 
L 2906 0 
L 2906 525 
Q 2725 213 2448 61 
Q 2172 -91 1784 -91 
Q 1150 -91 751 415 
Q 353 922 353 1747 
Q 353 2572 751 3078 
Q 1150 3584 1784 3584 
Q 2172 3584 2448 3432 
Q 2725 3281 2906 2969 
z
M 947 1747 
Q 947 1113 1208 752 
Q 1469 391 1925 391 
Q 2381 391 2643 752 
Q 2906 1113 2906 1747 
Q 2906 2381 2643 2742 
Q 2381 3103 1925 3103 
Q 1469 3103 1208 2742 
Q 947 2381 947 1747 
z
" transform="scale(0.015625)"/>
      </defs>
      <use xlink:href="#DejaVuSans-4c"/>
      <use xlink:href="#DejaVuSans-6f" x="53.962891"/>
      <use xlink:href="#DejaVuSans-61" x="115.144531"/>
      <use xlink:href="#DejaVuSans-64" x="176.423828"/>
     </g>
    </g>
    <g id="line2d_12">
     <path d="M 522.207813 79.616562 
L 532.207813 79.616562 
L 542.207813 79.616562 
" style="fill: none; stroke: #51bceb; stroke-width: 1.5; stroke-linecap: square"/>
    </g>
    <g id="text_6">
     <!-- PV -->
     <g transform="translate(550.207813 83.116562)scale(0.1 -0.1)">
      <defs>
       <path id="DejaVuSans-56" d="M 1831 0 
L 50 4666 
L 709 4666 
L 2188 738 
L 3669 4666 
L 4325 4666 
L 2547 0 
L 1831 0 
z
" transform="scale(0.015625)"/>
      </defs>
      <use xlink:href="#DejaVuSans-50"/>
      <use xlink:href="#DejaVuSans-56" x="60.302734"/>
     </g>
    </g>
   </g>
  </g>
  <g id="axes_2">
   <g id="patch_8">
    <path d="M 81 210.928696 
L 583.2 210.928696 
L 583.2 138.615652 
L 81 138.615652 
z
" style="fill: #ffffff"/>
   </g>
   <g id="matplotlib.axis_3">
    <g id="xtick_6">
     <g id="line2d_13">
      <g>
       <use xlink:href="#m4c430e24b4" x="106.205114" y="210.928696" style="stroke: #000000; stroke-width: 0.8"/>
      </g>
     </g>
    </g>
    <g id="xtick_7">
     <g id="line2d_14">
      <g>
       <use xlink:href="#m4c430e24b4" x="220.341477" y="210.928696" style="stroke: #000000; stroke-width: 0.8"/>
      </g>
     </g>
    </g>
    <g id="xtick_8">
     <g id="line2d_15">
      <g>
       <use xlink:href="#m4c430e24b4" x="334.477841" y="210.928696" style="stroke: #000000; stroke-width: 0.8"/>
      </g>
     </g>
    </g>
    <g id="xtick_9">
     <g id="line2d_16">
      <g>
       <use xlink:href="#m4c430e24b4" x="448.614205" y="210.928696" style="stroke: #000000; stroke-width: 0.8"/>
      </g>
     </g>
    </g>
    <g id="xtick_10">
     <g id="line2d_17">
      <g>
       <use xlink:href="#m4c430e24b4" x="557.994886" y="210.928696" style="stroke: #000000; stroke-width: 0.8"/>
      </g>
     </g>
    </g>
   </g>
   <g id="matplotlib.axis_4">
    <g id="ytick_4">
     <g id="line2d_18">
      <g>
       <use xlink:href="#m0fc4d11947" x="81" y="187.920752" style="stroke: #000000; stroke-width: 0.8"/>
      </g>
     </g>
     <g id="text_7">
      <!-- 0.10 -->
      <g transform="translate(51.734375 191.71997)scale(0.1 -0.1)">
       <defs>
        <path id="DejaVuSans-31" d="M 794 531 
L 1825 531 
L 1825 4091 
L 703 3866 
L 703 4441 
L 1819 4666 
L 2450 4666 
L 2450 531 
L 3481 531 
L 3481 0 
L 794 0 
L 794 531 
z
" transform="scale(0.015625)"/>
       </defs>
       <use xlink:href="#DejaVuSans-30"/>
       <use xlink:href="#DejaVuSans-2e" x="63.623047"/>
       <use xlink:href="#DejaVuSans-31" x="95.410156"/>
       <use xlink:href="#DejaVuSans-30" x="159.033203"/>
      </g>
     </g>
    </g>
    <g id="ytick_5">
     <g id="line2d_19">
      <g>
       <use xlink:href="#m0fc4d11947" x="81" y="155.049307" style="stroke: #000000; stroke-width: 0.8"/>
      </g>
     </g>
     <g id="text_8">
      <!-- 0.15 -->
      <g transform="translate(51.734375 158.848526)scale(0.1 -0.1)">
       <defs>
        <path id="DejaVuSans-35" d="M 691 4666 
L 3169 4666 
L 3169 4134 
L 1269 4134 
L 1269 2991 
Q 1406 3038 1543 3061 
Q 1681 3084 1819 3084 
Q 2600 3084 3056 2656 
Q 3513 2228 3513 1497 
Q 3513 744 3044 326 
Q 2575 -91 1722 -91 
Q 1428 -91 1123 -41 
Q 819 9 494 109 
L 494 744 
Q 775 591 1075 516 
Q 1375 441 1709 441 
Q 2250 441 2565 725 
Q 2881 1009 2881 1497 
Q 2881 1984 2565 2268 
Q 2250 2553 1709 2553 
Q 1456 2553 1204 2497 
Q 953 2441 691 2322 
L 691 4666 
z
" transform="scale(0.015625)"/>
       </defs>
       <use xlink:href="#DejaVuSans-30"/>
       <use xlink:href="#DejaVuSans-2e" x="63.623047"/>
       <use xlink:href="#DejaVuSans-31" x="95.410156"/>
       <use xlink:href="#DejaVuSans-35" x="159.033203"/>
      </g>
     </g>
    </g>
    <g id="text_9">
     <!-- Price [€] -->
     <g transform="translate(45.654687 195.641705)rotate(-90)scale(0.1 -0.1)">
      <defs>
       <path id="DejaVuSans-69" d="M 603 3500 
L 1178 3500 
L 1178 0 
L 603 0 
L 603 3500 
z
M 603 4863 
L 1178 4863 
L 1178 4134 
L 603 4134 
L 603 4863 
z
" transform="scale(0.015625)"/>
       <path id="DejaVuSans-63" d="M 3122 3366 
L 3122 2828 
Q 2878 2963 2633 3030 
Q 2388 3097 2138 3097 
Q 1578 3097 1268 2742 
Q 959 2388 959 1747 
Q 959 1106 1268 751 
Q 1578 397 2138 397 
Q 2388 397 2633 464 
Q 2878 531 3122 666 
L 3122 134 
Q 2881 22 2623 -34 
Q 2366 -91 2075 -91 
Q 1284 -91 818 406 
Q 353 903 353 1747 
Q 353 2603 823 3093 
Q 1294 3584 2113 3584 
Q 2378 3584 2631 3529 
Q 2884 3475 3122 3366 
z
" transform="scale(0.015625)"/>
       <path id="DejaVuSans-20ac" d="M 3647 4306 
L 3647 3641 
Q 3363 3969 3098 4109 
Q 2834 4250 2516 4250 
Q 2025 4250 1709 3937 
Q 1394 3625 1294 3041 
L 3097 3041 
L 2925 2656 
L 1244 2656 
Q 1238 2581 1236 2509 
Q 1234 2438 1234 2328 
Q 1234 2228 1236 2156 
Q 1238 2084 1244 2009 
L 2638 2009 
L 2463 1625 
L 1294 1625 
Q 1394 1041 1709 725 
Q 2025 409 2516 409 
Q 2834 409 3098 550 
Q 3363 691 3647 1019 
L 3647 359 
Q 3369 134 3080 21 
Q 2791 -91 2491 -91 
Q 1750 -91 1267 362 
Q 784 816 659 1625 
L 0 1625 
L 172 2009 
L 606 2009 
Q 606 2081 604 2154 
Q 603 2228 603 2328 
Q 603 2438 604 2511 
Q 606 2584 606 2656 
L 0 2656 
L 172 3041 
L 659 3041 
Q 784 3844 1268 4297 
Q 1753 4750 2491 4750 
Q 2797 4750 3086 4639 
Q 3375 4528 3647 4306 
z
" transform="scale(0.015625)"/>
      </defs>
      <use xlink:href="#DejaVuSans-50"/>
      <use xlink:href="#DejaVuSans-72" x="58.552734"/>
      <use xlink:href="#DejaVuSans-69" x="99.666016"/>
      <use xlink:href="#DejaVuSans-63" x="127.449219"/>
      <use xlink:href="#DejaVuSans-65" x="182.429688"/>
      <use xlink:href="#DejaVuSans-20" x="243.953125"/>
      <use xlink:href="#DejaVuSans-5b" x="275.740234"/>
      <use xlink:href="#DejaVuSans-20ac" x="314.753906"/>
      <use xlink:href="#DejaVuSans-5d" x="378.376953"/>
     </g>
    </g>
   </g>
   <g id="line2d_20">
    <path d="M 106.205114 179.410992 
L 110.960795 183.618953 
L 115.716477 187.675543 
L 120.472159 191.511353 
L 125.227841 195.06075 
L 129.983523 198.263005 
L 134.739205 201.063325 
L 139.494886 203.413796 
L 144.250568 205.2742 
L 149.00625 206.612707 
L 153.761932 207.406414 
L 158.517614 207.641739 
L 163.273295 207.314657 
L 168.028977 206.430764 
L 172.784659 205.005184 
L 177.540341 203.062309 
L 182.296023 200.635382 
L 187.051705 197.765928 
L 191.807386 194.503045 
L 196.563068 190.90256 
L 201.31875 187.026081 
L 206.074432 182.939934 
L 210.830114 178.714034 
L 215.585795 174.420688 
L 220.341477 170.133355 
L 225.097159 165.925395 
L 229.852841 161.868805 
L 234.608523 158.032995 
L 239.364205 154.483598 
L 244.119886 151.281343 
L 248.875568 148.481023 
L 253.63125 146.130552 
L 258.386932 144.270147 
L 263.142614 142.931641 
L 267.898295 142.137934 
L 272.653977 141.902609 
L 277.409659 142.229691 
L 282.165341 143.113583 
L 286.921023 144.539163 
L 291.676705 146.482039 
L 296.432386 148.908966 
L 301.188068 151.77842 
L 305.94375 155.041303 
L 310.699432 158.641787 
L 315.455114 162.518267 
L 320.210795 166.604414 
L 324.966477 170.830314 
L 329.722159 175.12366 
L 334.477841 179.410992 
L 339.233523 183.618953 
L 343.989205 187.675543 
L 348.744886 191.511353 
L 353.500568 195.06075 
L 358.25625 198.263005 
L 363.011932 201.063325 
L 367.767614 203.413796 
L 372.523295 205.2742 
L 377.278977 206.612707 
L 382.034659 207.406414 
L 386.790341 207.641739 
L 391.546023 207.314657 
L 396.301705 206.430764 
L 401.057386 205.005184 
L 405.813068 203.062309 
L 410.56875 200.635382 
L 415.324432 197.765928 
L 420.080114 194.503045 
L 424.835795 190.90256 
L 429.591477 187.026081 
L 434.347159 182.939934 
L 439.102841 178.714034 
L 443.858523 174.420688 
L 448.614205 170.133355 
L 453.369886 165.925395 
L 458.125568 161.868805 
L 462.88125 158.032995 
L 467.636932 154.483598 
L 472.392614 151.281343 
L 477.148295 148.481023 
L 481.903977 146.130552 
L 486.659659 144.270147 
L 491.415341 142.931641 
L 496.171023 142.137934 
L 500.926705 141.902609 
L 505.682386 142.229691 
L 510.438068 143.113583 
L 515.19375 144.539163 
L 519.949432 146.482039 
L 524.705114 148.908966 
L 529.460795 151.77842 
L 534.216477 155.041303 
L 538.972159 158.641787 
L 543.727841 162.518267 
L 548.483523 166.604414 
L 553.239205 170.830314 
L 557.994886 175.12366 
" clip-path="url(#p87acb96880)" style="fill: none; stroke: #004079; stroke-width: 1.5; stroke-linecap: square"/>
   </g>
   <g id="line2d_21">
    <path d="M 106.205114 207.641739 
L 110.960795 207.641739 
L 115.716477 207.641739 
L 120.472159 207.641739 
L 125.227841 207.641739 
L 129.983523 207.641739 
L 134.739205 207.641739 
L 139.494886 207.641739 
L 144.250568 207.641739 
L 149.00625 207.641739 
L 153.761932 207.641739 
L 158.517614 207.641739 
L 163.273295 207.641739 
L 168.028977 207.641739 
L 172.784659 207.641739 
L 177.540341 207.641739 
L 182.296023 207.641739 
L 187.051705 207.641739 
L 191.807386 207.641739 
L 196.563068 207.641739 
L 201.31875 207.641739 
L 206.074432 207.641739 
L 210.830114 207.641739 
L 215.585795 207.641739 
L 220.341477 207.641739 
L 225.097159 207.641739 
L 229.852841 207.641739 
L 234.608523 207.641739 
L 239.364205 207.641739 
L 244.119886 207.641739 
L 248.875568 207.641739 
L 253.63125 207.641739 
L 258.386932 207.641739 
L 263.142614 207.641739 
L 267.898295 207.641739 
L 272.653977 207.641739 
L 277.409659 207.641739 
L 282.165341 207.641739 
L 286.921023 207.641739 
L 291.676705 207.641739 
L 296.432386 207.641739 
L 301.188068 207.641739 
L 305.94375 207.641739 
L 310.699432 207.641739 
L 315.455114 207.641739 
L 320.210795 207.641739 
L 324.966477 207.641739 
L 329.722159 207.641739 
L 334.477841 207.641739 
L 339.233523 207.641739 
L 343.989205 207.641739 
L 348.744886 207.641739 
L 353.500568 207.641739 
L 358.25625 207.641739 
L 363.011932 207.641739 
L 367.767614 207.641739 
L 372.523295 207.641739 
L 377.278977 207.641739 
L 382.034659 207.641739 
L 386.790341 207.641739 
L 391.546023 207.641739 
L 396.301705 207.641739 
L 401.057386 207.641739 
L 405.813068 207.641739 
L 410.56875 207.641739 
L 415.324432 207.641739 
L 420.080114 207.641739 
L 424.835795 207.641739 
L 429.591477 207.641739 
L 434.347159 207.641739 
L 439.102841 207.641739 
L 443.858523 207.641739 
L 448.614205 207.641739 
L 453.369886 207.641739 
L 458.125568 207.641739 
L 462.88125 207.641739 
L 467.636932 207.641739 
L 472.392614 207.641739 
L 477.148295 207.641739 
L 481.903977 207.641739 
L 486.659659 207.641739 
L 491.415341 207.641739 
L 496.171023 207.641739 
L 500.926705 207.641739 
L 505.682386 207.641739 
L 510.438068 207.641739 
L 515.19375 207.641739 
L 519.949432 207.641739 
L 524.705114 207.641739 
L 529.460795 207.641739 
L 534.216477 207.641739 
L 538.972159 207.641739 
L 543.727841 207.641739 
L 548.483523 207.641739 
L 553.239205 207.641739 
L 557.994886 207.641739 
" clip-path="url(#p87acb96880)" style="fill: none; stroke: #51bceb; stroke-width: 1.5; stroke-linecap: square"/>
   </g>
   <g id="line2d_22">
    <path d="M 106.205114 193.526366 
L 110.960795 195.630346 
L 115.716477 197.658641 
L 120.472159 199.576546 
L 125.227841 201.351245 
L 129.983523 202.952372 
L 134.739205 204.352532 
L 139.494886 205.527767 
L 144.250568 206.45797 
L 149.00625 207.127223 
L 153.761932 207.524076 
L 158.517614 207.641739 
L 163.273295 207.478198 
L 168.028977 207.036252 
L 172.784659 206.323462 
L 177.540341 205.352024 
L 182.296023 204.138561 
L 187.051705 202.703834 
L 191.807386 201.072392 
L 196.563068 199.27215 
L 201.31875 197.33391 
L 206.074432 195.290836 
L 210.830114 193.177886 
L 215.585795 191.031213 
L 220.341477 188.887547 
L 225.097159 186.783567 
L 229.852841 184.755272 
L 234.608523 182.837367 
L 239.364205 181.062668 
L 244.119886 179.461541 
L 248.875568 178.061381 
L 253.63125 176.886146 
L 258.386932 175.955943 
L 263.142614 175.28669 
L 267.898295 174.889837 
L 272.653977 174.772174 
L 277.409659 174.935715 
L 282.165341 175.377661 
L 286.921023 176.090451 
L 291.676705 177.061889 
L 296.432386 178.275353 
L 301.188068 179.710079 
L 305.94375 181.341521 
L 310.699432 183.141763 
L 315.455114 185.080003 
L 320.210795 187.123077 
L 324.966477 189.236027 
L 329.722159 191.3827 
L 334.477841 193.526366 
L 339.233523 195.630346 
L 343.989205 197.658641 
L 348.744886 199.576546 
L 353.500568 201.351245 
L 358.25625 202.952372 
L 363.011932 204.352532 
L 367.767614 205.527767 
L 372.523295 206.45797 
L 377.278977 207.127223 
L 382.034659 207.524076 
L 386.790341 207.641739 
L 391.546023 207.478198 
L 396.301705 207.036252 
L 401.057386 206.323462 
L 405.813068 205.352024 
L 410.56875 204.138561 
L 415.324432 202.703834 
L 420.080114 201.072392 
L 424.835795 199.27215 
L 429.591477 197.33391 
L 434.347159 195.290836 
L 439.102841 193.177886 
L 443.858523 191.031213 
L 448.614205 188.887547 
L 453.369886 186.783567 
L 458.125568 184.755272 
L 462.88125 182.837367 
L 467.636932 181.062668 
L 472.392614 179.461541 
L 477.148295 178.061381 
L 481.903977 176.886146 
L 486.659659 175.955943 
L 491.415341 175.28669 
L 496.171023 174.889837 
L 500.926705 174.772174 
L 505.682386 174.935715 
L 510.438068 175.377661 
L 515.19375 176.090451 
L 519.949432 177.061889 
L 524.705114 178.275353 
L 529.460795 179.710079 
L 534.216477 181.341521 
L 538.972159 183.141763 
L 543.727841 185.080003 
L 548.483523 187.123077 
L 553.239205 189.236027 
L 557.994886 191.3827 
" clip-path="url(#p87acb96880)" style="fill: none; stroke-dasharray: 5.55,2.4; stroke-dashoffset: 0; stroke: #1d8daf; stroke-width: 1.5"/>
   </g>
   <g id="patch_9">
    <path d="M 81 210.928696 
L 81 138.615652 
" style="fill: none; stroke: #000000; stroke-width: 0.8; stroke-linejoin: miter; stroke-linecap: square"/>
   </g>
   <g id="patch_10">
    <path d="M 583.2 210.928696 
L 583.2 138.615652 
" style="fill: none; stroke: #000000; stroke-width: 0.8; stroke-linejoin: miter; stroke-linecap: square"/>
   </g>
   <g id="patch_11">
    <path d="M 81 210.928696 
L 583.2 210.928696 
" style="fill: none; stroke: #000000; stroke-width: 0.8; stroke-linejoin: miter; stroke-linecap: square"/>
   </g>
   <g id="patch_12">
    <path d="M 81 138.615652 
L 583.2 138.615652 
" style="fill: none; stroke: #000000; stroke-width: 0.8; stroke-linejoin: miter; stroke-linecap: square"/>
   </g>
   <g id="legend_2">
    <g id="patch_13">
     <path d="M 501.328125 190.650027 
L 576.2 190.650027 
Q 578.2 190.650027 578.2 188.650027 
L 578.2 145.615652 
Q 578.2 143.615652 576.2 143.615652 
L 501.328125 143.615652 
Q 499.328125 143.615652 499.328125 145.615652 
L 499.328125 188.650027 
Q 499.328125 190.650027 501.328125 190.650027 
z
" style="fill: #ffffff; opacity: 0.8; stroke: #cccccc; stroke-linejoin: miter"/>
    </g>
    <g id="line2d_23">
     <path d="M 503.328125 151.71409 
L 513.328125 151.71409 
L 523.328125 151.71409 
" style="fill: none; stroke: #004079; stroke-width: 1.5; stroke-linecap: square"/>
    </g>
    <g id="text_10">
     <!-- Offtake -->
     <g transform="translate(531.328125 155.21409)scale(0.1 -0.1)">
      <defs>
       <path id="DejaVuSans-4f" d="M 2522 4238 
Q 1834 4238 1429 3725 
Q 1025 3213 1025 2328 
Q 1025 1447 1429 934 
Q 1834 422 2522 422 
Q 3209 422 3611 934 
Q 4013 1447 4013 2328 
Q 4013 3213 3611 3725 
Q 3209 4238 2522 4238 
z
M 2522 4750 
Q 3503 4750 4090 4092 
Q 4678 3434 4678 2328 
Q 4678 1225 4090 567 
Q 3503 -91 2522 -91 
Q 1538 -91 948 565 
Q 359 1222 359 2328 
Q 359 3434 948 4092 
Q 1538 4750 2522 4750 
z
" transform="scale(0.015625)"/>
       <path id="DejaVuSans-66" d="M 2375 4863 
L 2375 4384 
L 1825 4384 
Q 1516 4384 1395 4259 
Q 1275 4134 1275 3809 
L 1275 3500 
L 2222 3500 
L 2222 3053 
L 1275 3053 
L 1275 0 
L 697 0 
L 697 3053 
L 147 3053 
L 147 3500 
L 697 3500 
L 697 3744 
Q 697 4328 969 4595 
Q 1241 4863 1831 4863 
L 2375 4863 
z
" transform="scale(0.015625)"/>
       <path id="DejaVuSans-74" d="M 1172 4494 
L 1172 3500 
L 2356 3500 
L 2356 3053 
L 1172 3053 
L 1172 1153 
Q 1172 725 1289 603 
Q 1406 481 1766 481 
L 2356 481 
L 2356 0 
L 1766 0 
Q 1100 0 847 248 
Q 594 497 594 1153 
L 594 3053 
L 172 3053 
L 172 3500 
L 594 3500 
L 594 4494 
L 1172 4494 
z
" transform="scale(0.015625)"/>
      </defs>
      <use xlink:href="#DejaVuSans-4f"/>
      <use xlink:href="#DejaVuSans-66" x="78.710938"/>
      <use xlink:href="#DejaVuSans-66" x="113.916016"/>
      <use xlink:href="#DejaVuSans-74" x="147.371094"/>
      <use xlink:href="#DejaVuSans-61" x="186.580078"/>
      <use xlink:href="#DejaVuSans-6b" x="247.859375"/>
      <use xlink:href="#DejaVuSans-65" x="302.144531"/>
     </g>
    </g>
    <g id="line2d_24">
     <path d="M 503.328125 166.392215 
L 513.328125 166.392215 
L 523.328125 166.392215 
" style="fill: none; stroke: #51bceb; stroke-width: 1.5; stroke-linecap: square"/>
    </g>
    <g id="text_11">
     <!-- Injection -->
     <g transform="translate(531.328125 169.892215)scale(0.1 -0.1)">
      <defs>
       <path id="DejaVuSans-49" d="M 628 4666 
L 1259 4666 
L 1259 0 
L 628 0 
L 628 4666 
z
" transform="scale(0.015625)"/>
       <path id="DejaVuSans-6e" d="M 3513 2113 
L 3513 0 
L 2938 0 
L 2938 2094 
Q 2938 2591 2744 2837 
Q 2550 3084 2163 3084 
Q 1697 3084 1428 2787 
Q 1159 2491 1159 1978 
L 1159 0 
L 581 0 
L 581 3500 
L 1159 3500 
L 1159 2956 
Q 1366 3272 1645 3428 
Q 1925 3584 2291 3584 
Q 2894 3584 3203 3211 
Q 3513 2838 3513 2113 
z
" transform="scale(0.015625)"/>
       <path id="DejaVuSans-6a" d="M 603 3500 
L 1178 3500 
L 1178 -63 
Q 1178 -731 923 -1031 
Q 669 -1331 103 -1331 
L -116 -1331 
L -116 -844 
L 38 -844 
Q 366 -844 484 -692 
Q 603 -541 603 -63 
L 603 3500 
z
M 603 4863 
L 1178 4863 
L 1178 4134 
L 603 4134 
L 603 4863 
z
" transform="scale(0.015625)"/>
      </defs>
      <use xlink:href="#DejaVuSans-49"/>
      <use xlink:href="#DejaVuSans-6e" x="29.492188"/>
      <use xlink:href="#DejaVuSans-6a" x="92.871094"/>
      <use xlink:href="#DejaVuSans-65" x="120.654297"/>
      <use xlink:href="#DejaVuSans-63" x="182.177734"/>
      <use xlink:href="#DejaVuSans-74" x="237.158203"/>
      <use xlink:href="#DejaVuSans-69" x="276.367188"/>
      <use xlink:href="#DejaVuSans-6f" x="304.150391"/>
      <use xlink:href="#DejaVuSans-6e" x="365.332031"/>
     </g>
    </g>
    <g id="line2d_25">
     <path d="M 503.328125 181.07034 
L 513.328125 181.07034 
L 523.328125 181.07034 
" style="fill: none; stroke-dasharray: 5.55,2.4; stroke-dashoffset: 0; stroke: #1d8daf; stroke-width: 1.5"/>
    </g>
    <g id="text_12">
     <!-- P2P -->
     <g transform="translate(531.328125 184.57034)scale(0.1 -0.1)">
      <use xlink:href="#DejaVuSans-50"/>
      <use xlink:href="#DejaVuSans-32" x="60.302734"/>
      <use xlink:href="#DejaVuSans-50" x="123.925781"/>
     </g>
    </g>
   </g>
  </g>
  <g id="axes_3">
   <g id="patch_14">
    <path d="M 81 297.704348 
L 583.2 297.704348 
L 583.2 225.391304 
L 81 225.391304 
z
" style="fill: #ffffff"/>
   </g>
   <g id="patch_15">
    <path d="M 103.827273 297.704348 
L 108.582955 297.704348 
L 108.582955 297.704348 
L 103.827273 297.704348 
z
" clip-path="url(#p2cbcc28baa)" style="fill: #004079"/>
   </g>
   <g id="patch_16">
    <path d="M 108.582955 297.704348 
L 113.338636 297.704348 
L 113.338636 297.704348 
L 108.582955 297.704348 
z
" clip-path="url(#p2cbcc28baa)" style="fill: #004079"/>
   </g>
   <g id="patch_17">
    <path d="M 113.338636 297.704348 
L 118.094318 297.704348 
L 118.094318 297.704348 
L 113.338636 297.704348 
z
" clip-path="url(#p2cbcc28baa)" style="fill: #004079"/>
   </g>
   <g id="patch_18">
    <path d="M 118.094318 297.704348 
L 122.85 297.704348 
L 122.85 297.704348 
L 118.094318 297.704348 
z
" clip-path="url(#p2cbcc28baa)" style="fill: #004079"/>
   </g>
   <g id="patch_19">
    <path d="M 122.85 297.704348 
L 127.605682 297.704348 
L 127.605682 228.834783 
L 122.85 228.834783 
z
" clip-path="url(#p2cbcc28baa)" style="fill: #004079"/>
   </g>
   <g id="patch_20">
    <path d="M 127.605682 297.704348 
L 132.361364 297.704348 
L 132.361364 297.704348 
L 127.605682 297.704348 
z
" clip-path="url(#p2cbcc28baa)" style="fill: #004079"/>
   </g>
   <g id="patch_21">
    <path d="M 132.361364 297.704348 
L 137.117045 297.704348 
L 137.117045 263.269565 
L 132.361364 263.269565 
z
" clip-path="url(#p2cbcc28baa)" style="fill: #004079"/>
   </g>
   <g id="patch_22">
    <path d="M 137.117045 297.704348 
L 141.872727 297.704348 
L 141.872727 297.704348 
L 137.117045 297.704348 
z
" clip-path="url(#p2cbcc28baa)" style="fill: #004079"/>
   </g>
   <g id="patch_23">
    <path d="M 141.872727 297.704348 
L 146.628409 297.704348 
L 146.628409 297.704348 
L 141.872727 297.704348 
z
" clip-path="url(#p2cbcc28baa)" style="fill: #004079"/>
   </g>
   <g id="patch_24">
    <path d="M 146.628409 297.704348 
L 151.384091 297.704348 
L 151.384091 297.704348 
L 146.628409 297.704348 
z
" clip-path="url(#p2cbcc28baa)" style="fill: #004079"/>
   </g>
   <g id="patch_25">
    <path d="M 151.384091 297.704348 
L 156.139773 297.704348 
L 156.139773 263.269565 
L 151.384091 263.269565 
z
" clip-path="url(#p2cbcc28baa)" style="fill: #004079"/>
   </g>
   <g id="patch_26">
    <path d="M 156.139773 297.704348 
L 160.895455 297.704348 
L 160.895455 297.704348 
L 156.139773 297.704348 
z
" clip-path="url(#p2cbcc28baa)" style="fill: #004079"/>
   </g>
   <g id="patch_27">
    <path d="M 160.895455 297.704348 
L 165.651136 297.704348 
L 165.651136 297.704348 
L 160.895455 297.704348 
z
" clip-path="url(#p2cbcc28baa)" style="fill: #004079"/>
   </g>
   <g id="patch_28">
    <path d="M 165.651136 297.704348 
L 170.406818 297.704348 
L 170.406818 263.269565 
L 165.651136 263.269565 
z
" clip-path="url(#p2cbcc28baa)" style="fill: #004079"/>
   </g>
   <g id="patch_29">
    <path d="M 170.406818 297.704348 
L 175.1625 297.704348 
L 175.1625 297.704348 
L 170.406818 297.704348 
z
" clip-path="url(#p2cbcc28baa)" style="fill: #004079"/>
   </g>
   <g id="patch_30">
    <path d="M 175.1625 297.704348 
L 179.918182 297.704348 
L 179.918182 297.704348 
L 175.1625 297.704348 
z
" clip-path="url(#p2cbcc28baa)" style="fill: #004079"/>
   </g>
   <g id="patch_31">
    <path d="M 179.918182 297.704348 
L 184.673864 297.704348 
L 184.673864 228.834783 
L 179.918182 228.834783 
z
" clip-path="url(#p2cbcc28baa)" style="fill: #004079"/>
   </g>
   <g id="patch_32">
    <path d="M 184.673864 297.704348 
L 189.429545 297.704348 
L 189.429545 297.704348 
L 184.673864 297.704348 
z
" clip-path="url(#p2cbcc28baa)" style="fill: #004079"/>
   </g>
   <g id="patch_33">
    <path d="M 189.429545 297.704348 
L 194.185227 297.704348 
L 194.185227 297.704348 
L 189.429545 297.704348 
z
" clip-path="url(#p2cbcc28baa)" style="fill: #004079"/>
   </g>
   <g id="patch_34">
    <path d="M 194.185227 297.704348 
L 198.940909 297.704348 
L 198.940909 263.269565 
L 194.185227 263.269565 
z
" clip-path="url(#p2cbcc28baa)" style="fill: #004079"/>
   </g>
   <g id="patch_35">
    <path d="M 198.940909 297.704348 
L 203.696591 297.704348 
L 203.696591 297.704348 
L 198.940909 297.704348 
z
" clip-path="url(#p2cbcc28baa)" style="fill: #004079"/>
   </g>
   <g id="patch_36">
    <path d="M 203.696591 297.704348 
L 208.452273 297.704348 
L 208.452273 297.704348 
L 203.696591 297.704348 
z
" clip-path="url(#p2cbcc28baa)" style="fill: #004079"/>
   </g>
   <g id="patch_37">
    <path d="M 208.452273 297.704348 
L 213.207955 297.704348 
L 213.207955 263.269565 
L 208.452273 263.269565 
z
" clip-path="url(#p2cbcc28baa)" style="fill: #004079"/>
   </g>
   <g id="patch_38">
    <path d="M 213.207955 297.704348 
L 217.963636 297.704348 
L 217.963636 297.704348 
L 213.207955 297.704348 
z
" clip-path="url(#p2cbcc28baa)" style="fill: #004079"/>
   </g>
   <g id="patch_39">
    <path d="M 217.963636 297.704348 
L 222.719318 297.704348 
L 222.719318 297.704348 
L 217.963636 297.704348 
z
" clip-path="url(#p2cbcc28baa)" style="fill: #004079"/>
   </g>
   <g id="patch_40">
    <path d="M 222.719318 297.704348 
L 227.475 297.704348 
L 227.475 228.834783 
L 222.719318 228.834783 
z
" clip-path="url(#p2cbcc28baa)" style="fill: #004079"/>
   </g>
   <g id="patch_41">
    <path d="M 227.475 297.704348 
L 232.230682 297.704348 
L 232.230682 297.704348 
L 227.475 297.704348 
z
" clip-path="url(#p2cbcc28baa)" style="fill: #004079"/>
   </g>
   <g id="patch_42">
    <path d="M 232.230682 297.704348 
L 236.986364 297.704348 
L 236.986364 297.704348 
L 232.230682 297.704348 
z
" clip-path="url(#p2cbcc28baa)" style="fill: #004079"/>
   </g>
   <g id="patch_43">
    <path d="M 236.986364 297.704348 
L 241.742045 297.704348 
L 241.742045 297.704348 
L 236.986364 297.704348 
z
" clip-path="url(#p2cbcc28baa)" style="fill: #004079"/>
   </g>
   <g id="patch_44">
    <path d="M 241.742045 297.704348 
L 246.497727 297.704348 
L 246.497727 228.834783 
L 241.742045 228.834783 
z
" clip-path="url(#p2cbcc28baa)" style="fill: #004079"/>
   </g>
   <g id="patch_45">
    <path d="M 246.497727 297.704348 
L 251.253409 297.704348 
L 251.253409 297.704348 
L 246.497727 297.704348 
z
" clip-path="url(#p2cbcc28baa)" style="fill: #004079"/>
   </g>
   <g id="patch_46">
    <path d="M 251.253409 297.704348 
L 256.009091 297.704348 
L 256.009091 297.704348 
L 251.253409 297.704348 
z
" clip-path="url(#p2cbcc28baa)" style="fill: #004079"/>
   </g>
   <g id="patch_47">
    <path d="M 256.009091 297.704348 
L 260.764773 297.704348 
L 260.764773 297.704348 
L 256.009091 297.704348 
z
" clip-path="url(#p2cbcc28baa)" style="fill: #004079"/>
   </g>
   <g id="patch_48">
    <path d="M 260.764773 297.704348 
L 265.520455 297.704348 
L 265.520455 228.834783 
L 260.764773 228.834783 
z
" clip-path="url(#p2cbcc28baa)" style="fill: #004079"/>
   </g>
   <g id="patch_49">
    <path d="M 265.520455 297.704348 
L 270.276136 297.704348 
L 270.276136 297.704348 
L 265.520455 297.704348 
z
" clip-path="url(#p2cbcc28baa)" style="fill: #004079"/>
   </g>
   <g id="patch_50">
    <path d="M 270.276136 297.704348 
L 275.031818 297.704348 
L 275.031818 297.704348 
L 270.276136 297.704348 
z
" clip-path="url(#p2cbcc28baa)" style="fill: #004079"/>
   </g>
   <g id="patch_51">
    <path d="M 275.031818 297.704348 
L 279.7875 297.704348 
L 279.7875 297.704348 
L 275.031818 297.704348 
z
" clip-path="url(#p2cbcc28baa)" style="fill: #004079"/>
   </g>
   <g id="patch_52">
    <path d="M 279.7875 297.704348 
L 284.543182 297.704348 
L 284.543182 228.834783 
L 279.7875 228.834783 
z
" clip-path="url(#p2cbcc28baa)" style="fill: #004079"/>
   </g>
   <g id="patch_53">
    <path d="M 284.543182 297.704348 
L 289.298864 297.704348 
L 289.298864 297.704348 
L 284.543182 297.704348 
z
" clip-path="url(#p2cbcc28baa)" style="fill: #004079"/>
   </g>
   <g id="patch_54">
    <path d="M 289.298864 297.704348 
L 294.054545 297.704348 
L 294.054545 297.704348 
L 289.298864 297.704348 
z
" clip-path="url(#p2cbcc28baa)" style="fill: #004079"/>
   </g>
   <g id="patch_55">
    <path d="M 294.054545 297.704348 
L 298.810227 297.704348 
L 298.810227 297.704348 
L 294.054545 297.704348 
z
" clip-path="url(#p2cbcc28baa)" style="fill: #004079"/>
   </g>
   <g id="patch_56">
    <path d="M 298.810227 297.704348 
L 303.565909 297.704348 
L 303.565909 297.704348 
L 298.810227 297.704348 
z
" clip-path="url(#p2cbcc28baa)" style="fill: #004079"/>
   </g>
   <g id="patch_57">
    <path d="M 303.565909 297.704348 
L 308.321591 297.704348 
L 308.321591 297.704348 
L 303.565909 297.704348 
z
" clip-path="url(#p2cbcc28baa)" style="fill: #004079"/>
   </g>
   <g id="patch_58">
    <path d="M 308.321591 297.704348 
L 313.077273 297.704348 
L 313.077273 297.704348 
L 308.321591 297.704348 
z
" clip-path="url(#p2cbcc28baa)" style="fill: #004079"/>
   </g>
   <g id="patch_59">
    <path d="M 313.077273 297.704348 
L 317.832955 297.704348 
L 317.832955 297.704348 
L 313.077273 297.704348 
z
" clip-path="url(#p2cbcc28baa)" style="fill: #004079"/>
   </g>
   <g id="patch_60">
    <path d="M 317.832955 297.704348 
L 322.588636 297.704348 
L 322.588636 297.704348 
L 317.832955 297.704348 
z
" clip-path="url(#p2cbcc28baa)" style="fill: #004079"/>
   </g>
   <g id="patch_61">
    <path d="M 322.588636 297.704348 
L 327.344318 297.704348 
L 327.344318 297.704348 
L 322.588636 297.704348 
z
" clip-path="url(#p2cbcc28baa)" style="fill: #004079"/>
   </g>
   <g id="patch_62">
    <path d="M 327.344318 297.704348 
L 332.1 297.704348 
L 332.1 297.704348 
L 327.344318 297.704348 
z
" clip-path="url(#p2cbcc28baa)" style="fill: #004079"/>
   </g>
   <g id="patch_63">
    <path d="M 332.1 297.704348 
L 336.855682 297.704348 
L 336.855682 228.834783 
L 332.1 228.834783 
z
" clip-path="url(#p2cbcc28baa)" style="fill: #004079"/>
   </g>
   <g id="patch_64">
    <path d="M 336.855682 297.704348 
L 341.611364 297.704348 
L 341.611364 297.704348 
L 336.855682 297.704348 
z
" clip-path="url(#p2cbcc28baa)" style="fill: #004079"/>
   </g>
   <g id="patch_65">
    <path d="M 341.611364 297.704348 
L 346.367045 297.704348 
L 346.367045 297.704348 
L 341.611364 297.704348 
z
" clip-path="url(#p2cbcc28baa)" style="fill: #004079"/>
   </g>
   <g id="patch_66">
    <path d="M 346.367045 297.704348 
L 351.122727 297.704348 
L 351.122727 297.704348 
L 346.367045 297.704348 
z
" clip-path="url(#p2cbcc28baa)" style="fill: #004079"/>
   </g>
   <g id="patch_67">
    <path d="M 351.122727 297.704348 
L 355.878409 297.704348 
L 355.878409 297.704348 
L 351.122727 297.704348 
z
" clip-path="url(#p2cbcc28baa)" style="fill: #004079"/>
   </g>
   <g id="patch_68">
    <path d="M 355.878409 297.704348 
L 360.634091 297.704348 
L 360.634091 263.269565 
L 355.878409 263.269565 
z
" clip-path="url(#p2cbcc28baa)" style="fill: #004079"/>
   </g>
   <g id="patch_69">
    <path d="M 360.634091 297.704348 
L 365.389773 297.704348 
L 365.389773 297.704348 
L 360.634091 297.704348 
z
" clip-path="url(#p2cbcc28baa)" style="fill: #004079"/>
   </g>
   <g id="patch_70">
    <path d="M 365.389773 297.704348 
L 370.145455 297.704348 
L 370.145455 297.704348 
L 365.389773 297.704348 
z
" clip-path="url(#p2cbcc28baa)" style="fill: #004079"/>
   </g>
   <g id="patch_71">
    <path d="M 370.145455 297.704348 
L 374.901136 297.704348 
L 374.901136 297.704348 
L 370.145455 297.704348 
z
" clip-path="url(#p2cbcc28baa)" style="fill: #004079"/>
   </g>
   <g id="patch_72">
    <path d="M 374.901136 297.704348 
L 379.656818 297.704348 
L 379.656818 297.704348 
L 374.901136 297.704348 
z
" clip-path="url(#p2cbcc28baa)" style="fill: #004079"/>
   </g>
   <g id="patch_73">
    <path d="M 379.656818 297.704348 
L 384.4125 297.704348 
L 384.4125 263.269565 
L 379.656818 263.269565 
z
" clip-path="url(#p2cbcc28baa)" style="fill: #004079"/>
   </g>
   <g id="patch_74">
    <path d="M 384.4125 297.704348 
L 389.168182 297.704348 
L 389.168182 297.704348 
L 384.4125 297.704348 
z
" clip-path="url(#p2cbcc28baa)" style="fill: #004079"/>
   </g>
   <g id="patch_75">
    <path d="M 389.168182 297.704348 
L 393.923864 297.704348 
L 393.923864 297.704348 
L 389.168182 297.704348 
z
" clip-path="url(#p2cbcc28baa)" style="fill: #004079"/>
   </g>
   <g id="patch_76">
    <path d="M 393.923864 297.704348 
L 398.679545 297.704348 
L 398.679545 297.704348 
L 393.923864 297.704348 
z
" clip-path="url(#p2cbcc28baa)" style="fill: #004079"/>
   </g>
   <g id="patch_77">
    <path d="M 398.679545 297.704348 
L 403.435227 297.704348 
L 403.435227 297.704348 
L 398.679545 297.704348 
z
" clip-path="url(#p2cbcc28baa)" style="fill: #004079"/>
   </g>
   <g id="patch_78">
    <path d="M 403.435227 297.704348 
L 408.190909 297.704348 
L 408.190909 297.704348 
L 403.435227 297.704348 
z
" clip-path="url(#p2cbcc28baa)" style="fill: #004079"/>
   </g>
   <g id="patch_79">
    <path d="M 408.190909 297.704348 
L 412.946591 297.704348 
L 412.946591 297.704348 
L 408.190909 297.704348 
z
" clip-path="url(#p2cbcc28baa)" style="fill: #004079"/>
   </g>
   <g id="patch_80">
    <path d="M 412.946591 297.704348 
L 417.702273 297.704348 
L 417.702273 297.704348 
L 412.946591 297.704348 
z
" clip-path="url(#p2cbcc28baa)" style="fill: #004079"/>
   </g>
   <g id="patch_81">
    <path d="M 417.702273 297.704348 
L 422.457955 297.704348 
L 422.457955 297.704348 
L 417.702273 297.704348 
z
" clip-path="url(#p2cbcc28baa)" style="fill: #004079"/>
   </g>
   <g id="patch_82">
    <path d="M 422.457955 297.704348 
L 427.213636 297.704348 
L 427.213636 297.704348 
L 422.457955 297.704348 
z
" clip-path="url(#p2cbcc28baa)" style="fill: #004079"/>
   </g>
   <g id="patch_83">
    <path d="M 427.213636 297.704348 
L 431.969318 297.704348 
L 431.969318 228.834783 
L 427.213636 228.834783 
z
" clip-path="url(#p2cbcc28baa)" style="fill: #004079"/>
   </g>
   <g id="patch_84">
    <path d="M 431.969318 297.704348 
L 436.725 297.704348 
L 436.725 297.704348 
L 431.969318 297.704348 
z
" clip-path="url(#p2cbcc28baa)" style="fill: #004079"/>
   </g>
   <g id="patch_85">
    <path d="M 436.725 297.704348 
L 441.480682 297.704348 
L 441.480682 297.704348 
L 436.725 297.704348 
z
" clip-path="url(#p2cbcc28baa)" style="fill: #004079"/>
   </g>
   <g id="patch_86">
    <path d="M 441.480682 297.704348 
L 446.236364 297.704348 
L 446.236364 297.704348 
L 441.480682 297.704348 
z
" clip-path="url(#p2cbcc28baa)" style="fill: #004079"/>
   </g>
   <g id="patch_87">
    <path d="M 446.236364 297.704348 
L 450.992045 297.704348 
L 450.992045 297.704348 
L 446.236364 297.704348 
z
" clip-path="url(#p2cbcc28baa)" style="fill: #004079"/>
   </g>
   <g id="patch_88">
    <path d="M 450.992045 297.704348 
L 455.747727 297.704348 
L 455.747727 263.269565 
L 450.992045 263.269565 
z
" clip-path="url(#p2cbcc28baa)" style="fill: #004079"/>
   </g>
   <g id="patch_89">
    <path d="M 455.747727 297.704348 
L 460.503409 297.704348 
L 460.503409 297.704348 
L 455.747727 297.704348 
z
" clip-path="url(#p2cbcc28baa)" style="fill: #004079"/>
   </g>
   <g id="patch_90">
    <path d="M 460.503409 297.704348 
L 465.259091 297.704348 
L 465.259091 297.704348 
L 460.503409 297.704348 
z
" clip-path="url(#p2cbcc28baa)" style="fill: #004079"/>
   </g>
   <g id="patch_91">
    <path d="M 465.259091 297.704348 
L 470.014773 297.704348 
L 470.014773 263.269565 
L 465.259091 263.269565 
z
" clip-path="url(#p2cbcc28baa)" style="fill: #004079"/>
   </g>
   <g id="patch_92">
    <path d="M 470.014773 297.704348 
L 474.770455 297.704348 
L 474.770455 297.704348 
L 470.014773 297.704348 
z
" clip-path="url(#p2cbcc28baa)" style="fill: #004079"/>
   </g>
   <g id="patch_93">
    <path d="M 474.770455 297.704348 
L 479.526136 297.704348 
L 479.526136 297.704348 
L 474.770455 297.704348 
z
" clip-path="url(#p2cbcc28baa)" style="fill: #004079"/>
   </g>
   <g id="patch_94">
    <path d="M 479.526136 297.704348 
L 484.281818 297.704348 
L 484.281818 297.704348 
L 479.526136 297.704348 
z
" clip-path="url(#p2cbcc28baa)" style="fill: #004079"/>
   </g>
   <g id="patch_95">
    <path d="M 484.281818 297.704348 
L 489.0375 297.704348 
L 489.0375 263.269565 
L 484.281818 263.269565 
z
" clip-path="url(#p2cbcc28baa)" style="fill: #004079"/>
   </g>
   <g id="patch_96">
    <path d="M 489.0375 297.704348 
L 493.793182 297.704348 
L 493.793182 297.704348 
L 489.0375 297.704348 
z
" clip-path="url(#p2cbcc28baa)" style="fill: #004079"/>
   </g>
   <g id="patch_97">
    <path d="M 493.793182 297.704348 
L 498.548864 297.704348 
L 498.548864 297.704348 
L 493.793182 297.704348 
z
" clip-path="url(#p2cbcc28baa)" style="fill: #004079"/>
   </g>
   <g id="patch_98">
    <path d="M 498.548864 297.704348 
L 503.304545 297.704348 
L 503.304545 297.704348 
L 498.548864 297.704348 
z
" clip-path="url(#p2cbcc28baa)" style="fill: #004079"/>
   </g>
   <g id="patch_99">
    <path d="M 503.304545 297.704348 
L 508.060227 297.704348 
L 508.060227 263.269565 
L 503.304545 263.269565 
z
" clip-path="url(#p2cbcc28baa)" style="fill: #004079"/>
   </g>
   <g id="patch_100">
    <path d="M 508.060227 297.704348 
L 512.815909 297.704348 
L 512.815909 297.704348 
L 508.060227 297.704348 
z
" clip-path="url(#p2cbcc28baa)" style="fill: #004079"/>
   </g>
   <g id="patch_101">
    <path d="M 512.815909 297.704348 
L 517.571591 297.704348 
L 517.571591 297.704348 
L 512.815909 297.704348 
z
" clip-path="url(#p2cbcc28baa)" style="fill: #004079"/>
   </g>
   <g id="patch_102">
    <path d="M 517.571591 297.704348 
L 522.327273 297.704348 
L 522.327273 297.704348 
L 517.571591 297.704348 
z
" clip-path="url(#p2cbcc28baa)" style="fill: #004079"/>
   </g>
   <g id="patch_103">
    <path d="M 522.327273 297.704348 
L 527.082955 297.704348 
L 527.082955 228.834783 
L 522.327273 228.834783 
z
" clip-path="url(#p2cbcc28baa)" style="fill: #004079"/>
   </g>
   <g id="patch_104">
    <path d="M 527.082955 297.704348 
L 531.838636 297.704348 
L 531.838636 297.704348 
L 527.082955 297.704348 
z
" clip-path="url(#p2cbcc28baa)" style="fill: #004079"/>
   </g>
   <g id="patch_105">
    <path d="M 531.838636 297.704348 
L 536.594318 297.704348 
L 536.594318 297.704348 
L 531.838636 297.704348 
z
" clip-path="url(#p2cbcc28baa)" style="fill: #004079"/>
   </g>
   <g id="patch_106">
    <path d="M 536.594318 297.704348 
L 541.35 297.704348 
L 541.35 228.834783 
L 536.594318 228.834783 
z
" clip-path="url(#p2cbcc28baa)" style="fill: #004079"/>
   </g>
   <g id="patch_107">
    <path d="M 541.35 297.704348 
L 546.105682 297.704348 
L 546.105682 297.704348 
L 541.35 297.704348 
z
" clip-path="url(#p2cbcc28baa)" style="fill: #004079"/>
   </g>
   <g id="patch_108">
    <path d="M 546.105682 297.704348 
L 550.861364 297.704348 
L 550.861364 297.704348 
L 546.105682 297.704348 
z
" clip-path="url(#p2cbcc28baa)" style="fill: #004079"/>
   </g>
   <g id="patch_109">
    <path d="M 550.861364 297.704348 
L 555.617045 297.704348 
L 555.617045 297.704348 
L 550.861364 297.704348 
z
" clip-path="url(#p2cbcc28baa)" style="fill: #004079"/>
   </g>
   <g id="patch_110">
    <path d="M 555.617045 297.704348 
L 560.372727 297.704348 
L 560.372727 297.704348 
L 555.617045 297.704348 
z
" clip-path="url(#p2cbcc28baa)" style="fill: #004079"/>
   </g>
   <g id="matplotlib.axis_5">
    <g id="xtick_11">
     <g id="line2d_26">
      <g>
       <use xlink:href="#m4c430e24b4" x="106.205114" y="297.704348" style="stroke: #000000; stroke-width: 0.8"/>
      </g>
     </g>
    </g>
    <g id="xtick_12">
     <g id="line2d_27">
      <g>
       <use xlink:href="#m4c430e24b4" x="220.341477" y="297.704348" style="stroke: #000000; stroke-width: 0.8"/>
      </g>
     </g>
    </g>
    <g id="xtick_13">
     <g id="line2d_28">
      <g>
       <use xlink:href="#m4c430e24b4" x="334.477841" y="297.704348" style="stroke: #000000; stroke-width: 0.8"/>
      </g>
     </g>
    </g>
    <g id="xtick_14">
     <g id="line2d_29">
      <g>
       <use xlink:href="#m4c430e24b4" x="448.614205" y="297.704348" style="stroke: #000000; stroke-width: 0.8"/>
      </g>
     </g>
    </g>
    <g id="xtick_15">
     <g id="line2d_30">
      <g>
       <use xlink:href="#m4c430e24b4" x="557.994886" y="297.704348" style="stroke: #000000; stroke-width: 0.8"/>
      </g>
     </g>
    </g>
   </g>
   <g id="matplotlib.axis_6">
    <g id="ytick_6">
     <g id="line2d_31">
      <g>
       <use xlink:href="#m0fc4d11947" x="81" y="297.704348" style="stroke: #000000; stroke-width: 0.8"/>
      </g>
     </g>
     <g id="text_13">
      <!-- 0.0 -->
      <g transform="translate(58.096875 301.503567)scale(0.1 -0.1)">
       <use xlink:href="#DejaVuSans-30"/>
       <use xlink:href="#DejaVuSans-2e" x="63.623047"/>
       <use xlink:href="#DejaVuSans-30" x="95.410156"/>
      </g>
     </g>
    </g>
    <g id="ytick_7">
     <g id="line2d_32">
      <g>
       <use xlink:href="#m0fc4d11947" x="81" y="263.269565" style="stroke: #000000; stroke-width: 0.8"/>
      </g>
     </g>
     <g id="text_14">
      <!-- 1.5 -->
      <g transform="translate(58.096875 267.068784)scale(0.1 -0.1)">
       <use xlink:href="#DejaVuSans-31"/>
       <use xlink:href="#DejaVuSans-2e" x="63.623047"/>
       <use xlink:href="#DejaVuSans-35" x="95.410156"/>
      </g>
     </g>
    </g>
    <g id="ytick_8">
     <g id="line2d_33">
      <g>
       <use xlink:href="#m0fc4d11947" x="81" y="228.834783" style="stroke: #000000; stroke-width: 0.8"/>
      </g>
     </g>
     <g id="text_15">
      <!-- 3.0 -->
      <g transform="translate(58.096875 232.634001)scale(0.1 -0.1)">
       <defs>
        <path id="DejaVuSans-33" d="M 2597 2516 
Q 3050 2419 3304 2112 
Q 3559 1806 3559 1356 
Q 3559 666 3084 287 
Q 2609 -91 1734 -91 
Q 1441 -91 1130 -33 
Q 819 25 488 141 
L 488 750 
Q 750 597 1062 519 
Q 1375 441 1716 441 
Q 2309 441 2620 675 
Q 2931 909 2931 1356 
Q 2931 1769 2642 2001 
Q 2353 2234 1838 2234 
L 1294 2234 
L 1294 2753 
L 1863 2753 
Q 2328 2753 2575 2939 
Q 2822 3125 2822 3475 
Q 2822 3834 2567 4026 
Q 2313 4219 1838 4219 
Q 1578 4219 1281 4162 
Q 984 4106 628 3988 
L 628 4550 
Q 988 4650 1302 4700 
Q 1616 4750 1894 4750 
Q 2613 4750 3031 4423 
Q 3450 4097 3450 3541 
Q 3450 3153 3228 2886 
Q 3006 2619 2597 2516 
z
" transform="scale(0.015625)"/>
       </defs>
       <use xlink:href="#DejaVuSans-33"/>
       <use xlink:href="#DejaVuSans-2e" x="63.623047"/>
       <use xlink:href="#DejaVuSans-30" x="95.410156"/>
      </g>
     </g>
    </g>
    <g id="text_16">
     <!-- Power [kW] -->
     <g transform="translate(52.017187 289.991576)rotate(-90)scale(0.1 -0.1)">
      <use xlink:href="#DejaVuSans-50"/>
      <use xlink:href="#DejaVuSans-6f" x="56.677734"/>
      <use xlink:href="#DejaVuSans-77" x="117.859375"/>
      <use xlink:href="#DejaVuSans-65" x="199.646484"/>
      <use xlink:href="#DejaVuSans-72" x="261.169922"/>
      <use xlink:href="#DejaVuSans-20" x="302.283203"/>
      <use xlink:href="#DejaVuSans-5b" x="334.070312"/>
      <use xlink:href="#DejaVuSans-6b" x="373.083984"/>
      <use xlink:href="#DejaVuSans-57" x="430.994141"/>
      <use xlink:href="#DejaVuSans-5d" x="529.871094"/>
     </g>
    </g>
   </g>
   <g id="patch_111">
    <path d="M 81 297.704348 
L 81 225.391304 
" style="fill: none; stroke: #000000; stroke-width: 0.8; stroke-linejoin: miter; stroke-linecap: square"/>
   </g>
   <g id="patch_112">
    <path d="M 583.2 297.704348 
L 583.2 225.391304 
" style="fill: none; stroke: #000000; stroke-width: 0.8; stroke-linejoin: miter; stroke-linecap: square"/>
   </g>
   <g id="patch_113">
    <path d="M 81 297.704348 
L 583.2 297.704348 
" style="fill: none; stroke: #000000; stroke-width: 0.8; stroke-linejoin: miter; stroke-linecap: square"/>
   </g>
   <g id="patch_114">
    <path d="M 81 225.391304 
L 583.2 225.391304 
" style="fill: none; stroke: #000000; stroke-width: 0.8; stroke-linejoin: miter; stroke-linecap: square"/>
   </g>
  </g>
  <g id="axes_4">
   <g id="patch_115">
    <path d="M 81 384.48 
L 583.2 384.48 
L 583.2 312.166957 
L 81 312.166957 
z
" style="fill: #ffffff"/>
   </g>
   <g id="matplotlib.axis_7">
    <g id="xtick_16">
     <g id="line2d_34">
      <g>
       <use xlink:href="#m4c430e24b4" x="106.205114" y="384.48" style="stroke: #000000; stroke-width: 0.8"/>
      </g>
     </g>
     <g id="text_17">
      <!-- 00:00 -->
      <g transform="translate(91.795739 399.078438)scale(0.1 -0.1)">
       <defs>
        <path id="DejaVuSans-3a" d="M 750 794 
L 1409 794 
L 1409 0 
L 750 0 
L 750 794 
z
M 750 3309 
L 1409 3309 
L 1409 2516 
L 750 2516 
L 750 3309 
z
" transform="scale(0.015625)"/>
       </defs>
       <use xlink:href="#DejaVuSans-30"/>
       <use xlink:href="#DejaVuSans-30" x="63.623047"/>
       <use xlink:href="#DejaVuSans-3a" x="127.246094"/>
       <use xlink:href="#DejaVuSans-30" x="160.9375"/>
       <use xlink:href="#DejaVuSans-30" x="224.560547"/>
      </g>
     </g>
    </g>
    <g id="xtick_17">
     <g id="line2d_35">
      <g>
       <use xlink:href="#m4c430e24b4" x="220.341477" y="384.48" style="stroke: #000000; stroke-width: 0.8"/>
      </g>
     </g>
     <g id="text_18">
      <!-- 06:00 -->
      <g transform="translate(205.932102 399.078438)scale(0.1 -0.1)">
       <defs>
        <path id="DejaVuSans-36" d="M 2113 2584 
Q 1688 2584 1439 2293 
Q 1191 2003 1191 1497 
Q 1191 994 1439 701 
Q 1688 409 2113 409 
Q 2538 409 2786 701 
Q 3034 994 3034 1497 
Q 3034 2003 2786 2293 
Q 2538 2584 2113 2584 
z
M 3366 4563 
L 3366 3988 
Q 3128 4100 2886 4159 
Q 2644 4219 2406 4219 
Q 1781 4219 1451 3797 
Q 1122 3375 1075 2522 
Q 1259 2794 1537 2939 
Q 1816 3084 2150 3084 
Q 2853 3084 3261 2657 
Q 3669 2231 3669 1497 
Q 3669 778 3244 343 
Q 2819 -91 2113 -91 
Q 1303 -91 875 529 
Q 447 1150 447 2328 
Q 447 3434 972 4092 
Q 1497 4750 2381 4750 
Q 2619 4750 2861 4703 
Q 3103 4656 3366 4563 
z
" transform="scale(0.015625)"/>
       </defs>
       <use xlink:href="#DejaVuSans-30"/>
       <use xlink:href="#DejaVuSans-36" x="63.623047"/>
       <use xlink:href="#DejaVuSans-3a" x="127.246094"/>
       <use xlink:href="#DejaVuSans-30" x="160.9375"/>
       <use xlink:href="#DejaVuSans-30" x="224.560547"/>
      </g>
     </g>
    </g>
    <g id="xtick_18">
     <g id="line2d_36">
      <g>
       <use xlink:href="#m4c430e24b4" x="334.477841" y="384.48" style="stroke: #000000; stroke-width: 0.8"/>
      </g>
     </g>
     <g id="text_19">
      <!-- 12:00 -->
      <g transform="translate(320.068466 399.078438)scale(0.1 -0.1)">
       <use xlink:href="#DejaVuSans-31"/>
       <use xlink:href="#DejaVuSans-32" x="63.623047"/>
       <use xlink:href="#DejaVuSans-3a" x="127.246094"/>
       <use xlink:href="#DejaVuSans-30" x="160.9375"/>
       <use xlink:href="#DejaVuSans-30" x="224.560547"/>
      </g>
     </g>
    </g>
    <g id="xtick_19">
     <g id="line2d_37">
      <g>
       <use xlink:href="#m4c430e24b4" x="448.614205" y="384.48" style="stroke: #000000; stroke-width: 0.8"/>
      </g>
     </g>
     <g id="text_20">
      <!-- 18:00 -->
      <g transform="translate(434.20483 399.078438)scale(0.1 -0.1)">
       <defs>
        <path id="DejaVuSans-38" d="M 2034 2216 
Q 1584 2216 1326 1975 
Q 1069 1734 1069 1313 
Q 1069 891 1326 650 
Q 1584 409 2034 409 
Q 2484 409 2743 651 
Q 3003 894 3003 1313 
Q 3003 1734 2745 1975 
Q 2488 2216 2034 2216 
z
M 1403 2484 
Q 997 2584 770 2862 
Q 544 3141 544 3541 
Q 544 4100 942 4425 
Q 1341 4750 2034 4750 
Q 2731 4750 3128 4425 
Q 3525 4100 3525 3541 
Q 3525 3141 3298 2862 
Q 3072 2584 2669 2484 
Q 3125 2378 3379 2068 
Q 3634 1759 3634 1313 
Q 3634 634 3220 271 
Q 2806 -91 2034 -91 
Q 1263 -91 848 271 
Q 434 634 434 1313 
Q 434 1759 690 2068 
Q 947 2378 1403 2484 
z
M 1172 3481 
Q 1172 3119 1398 2916 
Q 1625 2713 2034 2713 
Q 2441 2713 2670 2916 
Q 2900 3119 2900 3481 
Q 2900 3844 2670 4047 
Q 2441 4250 2034 4250 
Q 1625 4250 1398 4047 
Q 1172 3844 1172 3481 
z
" transform="scale(0.015625)"/>
       </defs>
       <use xlink:href="#DejaVuSans-31"/>
       <use xlink:href="#DejaVuSans-38" x="63.623047"/>
       <use xlink:href="#DejaVuSans-3a" x="127.246094"/>
       <use xlink:href="#DejaVuSans-30" x="160.9375"/>
       <use xlink:href="#DejaVuSans-30" x="224.560547"/>
      </g>
     </g>
    </g>
    <g id="xtick_20">
     <g id="line2d_38">
      <g>
       <use xlink:href="#m4c430e24b4" x="557.994886" y="384.48" style="stroke: #000000; stroke-width: 0.8"/>
      </g>
     </g>
     <g id="text_21">
      <!-- 23:45 -->
      <g transform="translate(543.585511 399.078438)scale(0.1 -0.1)">
       <use xlink:href="#DejaVuSans-32"/>
       <use xlink:href="#DejaVuSans-33" x="63.623047"/>
       <use xlink:href="#DejaVuSans-3a" x="127.246094"/>
       <use xlink:href="#DejaVuSans-34" x="160.9375"/>
       <use xlink:href="#DejaVuSans-35" x="224.560547"/>
      </g>
     </g>
    </g>
    <g id="text_22">
     <!-- Time -->
     <g transform="translate(319.866406 412.756563)scale(0.1 -0.1)">
      <defs>
       <path id="DejaVuSans-54" d="M -19 4666 
L 3928 4666 
L 3928 4134 
L 2272 4134 
L 2272 0 
L 1638 0 
L 1638 4134 
L -19 4134 
L -19 4666 
z
" transform="scale(0.015625)"/>
       <path id="DejaVuSans-6d" d="M 3328 2828 
Q 3544 3216 3844 3400 
Q 4144 3584 4550 3584 
Q 5097 3584 5394 3201 
Q 5691 2819 5691 2113 
L 5691 0 
L 5113 0 
L 5113 2094 
Q 5113 2597 4934 2840 
Q 4756 3084 4391 3084 
Q 3944 3084 3684 2787 
Q 3425 2491 3425 1978 
L 3425 0 
L 2847 0 
L 2847 2094 
Q 2847 2600 2669 2842 
Q 2491 3084 2119 3084 
Q 1678 3084 1418 2786 
Q 1159 2488 1159 1978 
L 1159 0 
L 581 0 
L 581 3500 
L 1159 3500 
L 1159 2956 
Q 1356 3278 1631 3431 
Q 1906 3584 2284 3584 
Q 2666 3584 2933 3390 
Q 3200 3197 3328 2828 
z
" transform="scale(0.015625)"/>
      </defs>
      <use xlink:href="#DejaVuSans-54"/>
      <use xlink:href="#DejaVuSans-69" x="57.958984"/>
      <use xlink:href="#DejaVuSans-6d" x="85.742188"/>
      <use xlink:href="#DejaVuSans-65" x="183.154297"/>
     </g>
    </g>
   </g>
   <g id="matplotlib.axis_8">
    <g id="ytick_9">
     <g id="line2d_39">
      <g>
       <use xlink:href="#m0fc4d11947" x="81" y="365.576101" style="stroke: #000000; stroke-width: 0.8"/>
      </g>
     </g>
     <g id="text_23">
      <!-- 20 -->
      <g transform="translate(61.275 369.37532)scale(0.1 -0.1)">
       <use xlink:href="#DejaVuSans-32"/>
       <use xlink:href="#DejaVuSans-30" x="63.623047"/>
      </g>
     </g>
    </g>
    <g id="ytick_10">
     <g id="line2d_40">
      <g>
       <use xlink:href="#m0fc4d11947" x="81" y="328.700208" style="stroke: #000000; stroke-width: 0.8"/>
      </g>
     </g>
     <g id="text_24">
      <!-- 21 -->
      <g transform="translate(61.275 332.499427)scale(0.1 -0.1)">
       <use xlink:href="#DejaVuSans-32"/>
       <use xlink:href="#DejaVuSans-31" x="63.623047"/>
      </g>
     </g>
    </g>
    <g id="text_25">
     <!-- Temperature [°C] -->
     <g transform="translate(55.195312 391.475041)rotate(-90)scale(0.1 -0.1)">
      <defs>
       <path id="DejaVuSans-70" d="M 1159 525 
L 1159 -1331 
L 581 -1331 
L 581 3500 
L 1159 3500 
L 1159 2969 
Q 1341 3281 1617 3432 
Q 1894 3584 2278 3584 
Q 2916 3584 3314 3078 
Q 3713 2572 3713 1747 
Q 3713 922 3314 415 
Q 2916 -91 2278 -91 
Q 1894 -91 1617 61 
Q 1341 213 1159 525 
z
M 3116 1747 
Q 3116 2381 2855 2742 
Q 2594 3103 2138 3103 
Q 1681 3103 1420 2742 
Q 1159 2381 1159 1747 
Q 1159 1113 1420 752 
Q 1681 391 2138 391 
Q 2594 391 2855 752 
Q 3116 1113 3116 1747 
z
" transform="scale(0.015625)"/>
       <path id="DejaVuSans-75" d="M 544 1381 
L 544 3500 
L 1119 3500 
L 1119 1403 
Q 1119 906 1312 657 
Q 1506 409 1894 409 
Q 2359 409 2629 706 
Q 2900 1003 2900 1516 
L 2900 3500 
L 3475 3500 
L 3475 0 
L 2900 0 
L 2900 538 
Q 2691 219 2414 64 
Q 2138 -91 1772 -91 
Q 1169 -91 856 284 
Q 544 659 544 1381 
z
M 1991 3584 
L 1991 3584 
z
" transform="scale(0.015625)"/>
       <path id="DejaVuSans-b0" d="M 1600 4347 
Q 1350 4347 1178 4173 
Q 1006 4000 1006 3750 
Q 1006 3503 1178 3333 
Q 1350 3163 1600 3163 
Q 1850 3163 2022 3333 
Q 2194 3503 2194 3750 
Q 2194 3997 2020 4172 
Q 1847 4347 1600 4347 
z
M 1600 4750 
Q 1800 4750 1984 4673 
Q 2169 4597 2303 4453 
Q 2447 4313 2519 4134 
Q 2591 3956 2591 3750 
Q 2591 3338 2302 3052 
Q 2013 2766 1594 2766 
Q 1172 2766 890 3047 
Q 609 3328 609 3750 
Q 609 4169 896 4459 
Q 1184 4750 1600 4750 
z
" transform="scale(0.015625)"/>
       <path id="DejaVuSans-43" d="M 4122 4306 
L 4122 3641 
Q 3803 3938 3442 4084 
Q 3081 4231 2675 4231 
Q 1875 4231 1450 3742 
Q 1025 3253 1025 2328 
Q 1025 1406 1450 917 
Q 1875 428 2675 428 
Q 3081 428 3442 575 
Q 3803 722 4122 1019 
L 4122 359 
Q 3791 134 3420 21 
Q 3050 -91 2638 -91 
Q 1578 -91 968 557 
Q 359 1206 359 2328 
Q 359 3453 968 4101 
Q 1578 4750 2638 4750 
Q 3056 4750 3426 4639 
Q 3797 4528 4122 4306 
z
" transform="scale(0.015625)"/>
      </defs>
      <use xlink:href="#DejaVuSans-54"/>
      <use xlink:href="#DejaVuSans-65" x="44.083984"/>
      <use xlink:href="#DejaVuSans-6d" x="105.607422"/>
      <use xlink:href="#DejaVuSans-70" x="203.019531"/>
      <use xlink:href="#DejaVuSans-65" x="266.496094"/>
      <use xlink:href="#DejaVuSans-72" x="328.019531"/>
      <use xlink:href="#DejaVuSans-61" x="369.132812"/>
      <use xlink:href="#DejaVuSans-74" x="430.412109"/>
      <use xlink:href="#DejaVuSans-75" x="469.621094"/>
      <use xlink:href="#DejaVuSans-72" x="533"/>
      <use xlink:href="#DejaVuSans-65" x="571.863281"/>
      <use xlink:href="#DejaVuSans-20" x="633.386719"/>
      <use xlink:href="#DejaVuSans-5b" x="665.173828"/>
      <use xlink:href="#DejaVuSans-b0" x="704.1875"/>
      <use xlink:href="#DejaVuSans-43" x="754.1875"/>
      <use xlink:href="#DejaVuSans-5d" x="824.011719"/>
     </g>
    </g>
   </g>
   <g id="line2d_41">
    <path d="M 106.205114 333.82687 
L 110.960795 344.290142 
L 115.716477 352.442904 
L 120.472159 358.855996 
L 125.227841 363.959587 
L 129.983523 325.232192 
L 134.739205 338.579699 
L 139.494886 327.528002 
L 144.250568 340.624695 
L 149.00625 350.810917 
L 153.761932 358.819 
L 158.517614 343.765442 
L 163.273295 353.868106 
L 168.028977 361.81978 
L 172.784659 346.627943 
L 177.540341 356.528746 
L 182.296023 364.22876 
L 187.051705 327.425313 
L 191.807386 342.191411 
L 196.563068 353.599285 
L 201.31875 341.055357 
L 206.074432 352.99588 
L 210.830114 362.301646 
L 215.585795 348.200919 
L 220.341477 358.995963 
L 225.097159 367.443078 
L 229.852841 331.234385 
L 234.608523 346.440289 
L 239.364205 358.171002 
L 244.119886 367.28412 
L 248.875568 331.603574 
L 253.63125 347.234162 
L 258.386932 359.312049 
L 263.142614 368.714386 
L 267.898295 332.998532 
L 272.653977 348.344614 
L 277.409659 359.945488 
L 282.165341 368.720927 
L 286.921023 332.226533 
L 291.676705 346.674435 
L 296.432386 357.281613 
L 301.188068 364.986059 
L 305.94375 370.552104 
L 310.699432 374.498963 
L 315.455114 377.21784 
L 320.210795 379.00358 
L 324.966477 380.169737 
L 329.722159 380.86282 
L 334.477841 381.193043 
L 339.233523 338.398023 
L 343.989205 348.12981 
L 348.744886 355.216783 
L 353.500568 360.304338 
L 358.25625 363.878631 
L 363.011932 344.989766 
L 367.767614 351.70115 
L 372.523295 356.589093 
L 377.278977 360.098326 
L 382.034659 362.642913 
L 386.790341 343.034519 
L 391.546023 349.261503 
L 396.301705 353.8437 
L 401.057386 357.336756 
L 405.813068 360.008649 
L 410.56875 362.061381 
L 415.324432 363.647088 
L 420.080114 364.984723 
L 424.835795 366.136813 
L 429.591477 367.150484 
L 434.347159 325.215592 
L 439.102841 336.133723 
L 443.858523 344.663904 
L 448.614205 351.399201 
L 453.369886 356.786454 
L 458.125568 339.724615 
L 462.88125 348.282297 
L 467.636932 355.03989 
L 472.392614 339.022389 
L 477.148295 348.263799 
L 481.903977 355.431306 
L 486.659659 361.038004 
L 491.415341 344.047767 
L 496.171023 352.540178 
L 500.926705 359.126716 
L 505.682386 364.278628 
L 510.438068 346.928204 
L 515.19375 355.141876 
L 519.949432 361.510868 
L 524.705114 366.491021 
L 529.460795 327.580332 
L 534.216477 340.631236 
L 538.972159 350.618972 
L 543.727841 315.453913 
L 548.483523 331.328986 
L 553.239205 343.318884 
L 557.994886 352.379884 
" clip-path="url(#p804ac65426)" style="fill: none; stroke: #004079; stroke-width: 1.5; stroke-linecap: square"/>
   </g>
   <g id="patch_116">
    <path d="M 81 384.48 
L 81 312.166957 
" style="fill: none; stroke: #000000; stroke-width: 0.8; stroke-linejoin: miter; stroke-linecap: square"/>
   </g>
   <g id="patch_117">
    <path d="M 583.2 384.48 
L 583.2 312.166957 
" style="fill: none; stroke: #000000; stroke-width: 0.8; stroke-linejoin: miter; stroke-linecap: square"/>
   </g>
   <g id="patch_118">
    <path d="M 81 384.48 
L 583.2 384.48 
" style="fill: none; stroke: #000000; stroke-width: 0.8; stroke-linejoin: miter; stroke-linecap: square"/>
   </g>
   <g id="patch_119">
    <path d="M 81 312.166957 
L 583.2 312.166957 
" style="fill: none; stroke: #000000; stroke-width: 0.8; stroke-linejoin: miter; stroke-linecap: square"/>
   </g>
  </g>
  <g id="text_26">
   <!-- Agent's state and decisions throughout the day -->
   <g transform="translate(181.396875 17.758125)scale(0.12 -0.12)">
    <defs>
     <path id="DejaVuSans-41" d="M 2188 4044 
L 1331 1722 
L 3047 1722 
L 2188 4044 
z
M 1831 4666 
L 2547 4666 
L 4325 0 
L 3669 0 
L 3244 1197 
L 1141 1197 
L 716 0 
L 50 0 
L 1831 4666 
z
" transform="scale(0.015625)"/>
     <path id="DejaVuSans-67" d="M 2906 1791 
Q 2906 2416 2648 2759 
Q 2391 3103 1925 3103 
Q 1463 3103 1205 2759 
Q 947 2416 947 1791 
Q 947 1169 1205 825 
Q 1463 481 1925 481 
Q 2391 481 2648 825 
Q 2906 1169 2906 1791 
z
M 3481 434 
Q 3481 -459 3084 -895 
Q 2688 -1331 1869 -1331 
Q 1566 -1331 1297 -1286 
Q 1028 -1241 775 -1147 
L 775 -588 
Q 1028 -725 1275 -790 
Q 1522 -856 1778 -856 
Q 2344 -856 2625 -561 
Q 2906 -266 2906 331 
L 2906 616 
Q 2728 306 2450 153 
Q 2172 0 1784 0 
Q 1141 0 747 490 
Q 353 981 353 1791 
Q 353 2603 747 3093 
Q 1141 3584 1784 3584 
Q 2172 3584 2450 3431 
Q 2728 3278 2906 2969 
L 2906 3500 
L 3481 3500 
L 3481 434 
z
" transform="scale(0.015625)"/>
     <path id="DejaVuSans-27" d="M 1147 4666 
L 1147 2931 
L 616 2931 
L 616 4666 
L 1147 4666 
z
" transform="scale(0.015625)"/>
     <path id="DejaVuSans-73" d="M 2834 3397 
L 2834 2853 
Q 2591 2978 2328 3040 
Q 2066 3103 1784 3103 
Q 1356 3103 1142 2972 
Q 928 2841 928 2578 
Q 928 2378 1081 2264 
Q 1234 2150 1697 2047 
L 1894 2003 
Q 2506 1872 2764 1633 
Q 3022 1394 3022 966 
Q 3022 478 2636 193 
Q 2250 -91 1575 -91 
Q 1294 -91 989 -36 
Q 684 19 347 128 
L 347 722 
Q 666 556 975 473 
Q 1284 391 1588 391 
Q 1994 391 2212 530 
Q 2431 669 2431 922 
Q 2431 1156 2273 1281 
Q 2116 1406 1581 1522 
L 1381 1569 
Q 847 1681 609 1914 
Q 372 2147 372 2553 
Q 372 3047 722 3315 
Q 1072 3584 1716 3584 
Q 2034 3584 2315 3537 
Q 2597 3491 2834 3397 
z
" transform="scale(0.015625)"/>
     <path id="DejaVuSans-68" d="M 3513 2113 
L 3513 0 
L 2938 0 
L 2938 2094 
Q 2938 2591 2744 2837 
Q 2550 3084 2163 3084 
Q 1697 3084 1428 2787 
Q 1159 2491 1159 1978 
L 1159 0 
L 581 0 
L 581 4863 
L 1159 4863 
L 1159 2956 
Q 1366 3272 1645 3428 
Q 1925 3584 2291 3584 
Q 2894 3584 3203 3211 
Q 3513 2838 3513 2113 
z
" transform="scale(0.015625)"/>
     <path id="DejaVuSans-79" d="M 2059 -325 
Q 1816 -950 1584 -1140 
Q 1353 -1331 966 -1331 
L 506 -1331 
L 506 -850 
L 844 -850 
Q 1081 -850 1212 -737 
Q 1344 -625 1503 -206 
L 1606 56 
L 191 3500 
L 800 3500 
L 1894 763 
L 2988 3500 
L 3597 3500 
L 2059 -325 
z
" transform="scale(0.015625)"/>
    </defs>
    <use xlink:href="#DejaVuSans-41"/>
    <use xlink:href="#DejaVuSans-67" x="68.408203"/>
    <use xlink:href="#DejaVuSans-65" x="131.884766"/>
    <use xlink:href="#DejaVuSans-6e" x="193.408203"/>
    <use xlink:href="#DejaVuSans-74" x="256.787109"/>
    <use xlink:href="#DejaVuSans-27" x="295.996094"/>
    <use xlink:href="#DejaVuSans-73" x="323.486328"/>
    <use xlink:href="#DejaVuSans-20" x="375.585938"/>
    <use xlink:href="#DejaVuSans-73" x="407.373047"/>
    <use xlink:href="#DejaVuSans-74" x="459.472656"/>
    <use xlink:href="#DejaVuSans-61" x="498.681641"/>
    <use xlink:href="#DejaVuSans-74" x="559.960938"/>
    <use xlink:href="#DejaVuSans-65" x="599.169922"/>
    <use xlink:href="#DejaVuSans-20" x="660.693359"/>
    <use xlink:href="#DejaVuSans-61" x="692.480469"/>
    <use xlink:href="#DejaVuSans-6e" x="753.759766"/>
    <use xlink:href="#DejaVuSans-64" x="817.138672"/>
    <use xlink:href="#DejaVuSans-20" x="880.615234"/>
    <use xlink:href="#DejaVuSans-64" x="912.402344"/>
    <use xlink:href="#DejaVuSans-65" x="975.878906"/>
    <use xlink:href="#DejaVuSans-63" x="1037.402344"/>
    <use xlink:href="#DejaVuSans-69" x="1092.382812"/>
    <use xlink:href="#DejaVuSans-73" x="1120.166016"/>
    <use xlink:href="#DejaVuSans-69" x="1172.265625"/>
    <use xlink:href="#DejaVuSans-6f" x="1200.048828"/>
    <use xlink:href="#DejaVuSans-6e" x="1261.230469"/>
    <use xlink:href="#DejaVuSans-73" x="1324.609375"/>
    <use xlink:href="#DejaVuSans-20" x="1376.708984"/>
    <use xlink:href="#DejaVuSans-74" x="1408.496094"/>
    <use xlink:href="#DejaVuSans-68" x="1447.705078"/>
    <use xlink:href="#DejaVuSans-72" x="1511.083984"/>
    <use xlink:href="#DejaVuSans-6f" x="1549.947266"/>
    <use xlink:href="#DejaVuSans-75" x="1611.128906"/>
    <use xlink:href="#DejaVuSans-67" x="1674.507812"/>
    <use xlink:href="#DejaVuSans-68" x="1737.984375"/>
    <use xlink:href="#DejaVuSans-6f" x="1801.363281"/>
    <use xlink:href="#DejaVuSans-75" x="1862.544922"/>
    <use xlink:href="#DejaVuSans-74" x="1925.923828"/>
    <use xlink:href="#DejaVuSans-20" x="1965.132812"/>
    <use xlink:href="#DejaVuSans-74" x="1996.919922"/>
    <use xlink:href="#DejaVuSans-68" x="2036.128906"/>
    <use xlink:href="#DejaVuSans-65" x="2099.507812"/>
    <use xlink:href="#DejaVuSans-20" x="2161.03125"/>
    <use xlink:href="#DejaVuSans-64" x="2192.818359"/>
    <use xlink:href="#DejaVuSans-61" x="2256.294922"/>
    <use xlink:href="#DejaVuSans-79" x="2317.574219"/>
   </g>
  </g>
 </g>
 <defs>
  <clipPath id="p64ecd80d09">
   <rect x="81" y="51.84" width="502.2" height="72.313043"/>
  </clipPath>
  <clipPath id="p87acb96880">
   <rect x="81" y="138.615652" width="502.2" height="72.313043"/>
  </clipPath>
  <clipPath id="p2cbcc28baa">
   <rect x="81" y="225.391304" width="502.2" height="72.313043"/>
  </clipPath>
  <clipPath id="p804ac65426">
   <rect x="81" y="312.166957" width="502.2" height="72.313043"/>
  </clipPath>
 </defs>
</svg>
