<?xml version="1.0" encoding="utf-8" standalone="no"?>
<!DOCTYPE svg PUBLIC "-//W3C//DTD SVG 1.1//EN"
  "http://www.w3.org/Graphics/SVG/1.1/DTD/svg11.dtd">
<svg xmlns:xlink="http://www.w3.org/1999/xlink" width="432pt" height="360pt" viewBox="0 0 432 360" xmlns="http://www.w3.org/2000/svg" version="1.1">
 <metadata>
  <rdf:RDF xmlns:dc="http://purl.org/dc/elements/1.1/" xmlns:cc="http://creativecommons.org/ns#" xmlns:rdf="http://www.w3.org/1999/02/22-rdf-syntax-ns#">
   <cc:Work>
    <dc:type rdf:resource="http://purl.org/dc/dcmitype/StillImage"/>
    <dc:date>2022-04-30T12:02:43.807330</dc:date>
    <dc:format>image/svg+xml</dc:format>
    <dc:creator>
     <cc:Agent>
      <dc:title>Matplotlib v3.5.1, https://matplotlib.org/</dc:title>
     </cc:Agent>
    </dc:creator>
   </cc:Work>
  </rdf:RDF>
 </metadata>
 <defs>
  <style type="text/css">*{stroke-linejoin: round; stroke-linecap: butt}</style>
 </defs>
 <g id="figure_1">
  <g id="patch_1">
   <path d="M 0 360 
L 432 360 
L 432 0 
L 0 0 
z
" style="fill: #ffffff"/>
  </g>
  <g id="axes_1">
   <g id="patch_2">
    <path d="M 74.36 315.88 
L 421.2 315.88 
L 421.2 38.88 
L 74.36 38.88 
z
" style="fill: #ffffff"/>
   </g>
   <g id="matplotlib.axis_1">
    <g id="xtick_1">
     <g id="line2d_1">
      <defs>
       <path id="m7dd32b9ed8" d="M 0 0 
L 0 3.5 
" style="stroke: #2f4d5d; stroke-width: 0.8"/>
      </defs>
      <g>
       <use xlink:href="#m7dd32b9ed8" x="90.125455" y="315.88" style="fill: #2f4d5d; stroke: #2f4d5d; stroke-width: 0.8"/>
      </g>
     </g>
     <g id="text_1">
      <!-- 0 -->
      <g style="fill: #2f4d5d" transform="translate(86.944205 330.478438)scale(0.1 -0.1)">
       <defs>
        <path id="DejaVuSans-30" d="M 2034 4250 
Q 1547 4250 1301 3770 
Q 1056 3291 1056 2328 
Q 1056 1369 1301 889 
Q 1547 409 2034 409 
Q 2525 409 2770 889 
Q 3016 1369 3016 2328 
Q 3016 3291 2770 3770 
Q 2525 4250 2034 4250 
z
M 2034 4750 
Q 2819 4750 3233 4129 
Q 3647 3509 3647 2328 
Q 3647 1150 3233 529 
Q 2819 -91 2034 -91 
Q 1250 -91 836 529 
Q 422 1150 422 2328 
Q 422 3509 836 4129 
Q 1250 4750 2034 4750 
z
" transform="scale(0.015625)"/>
       </defs>
       <use xlink:href="#DejaVuSans-30"/>
      </g>
     </g>
    </g>
    <g id="xtick_2">
     <g id="line2d_2">
      <g>
       <use xlink:href="#m7dd32b9ed8" x="129.558808" y="315.88" style="fill: #2f4d5d; stroke: #2f4d5d; stroke-width: 0.8"/>
      </g>
     </g>
     <g id="text_2">
      <!-- 250 -->
      <g style="fill: #2f4d5d" transform="translate(120.015058 330.478438)scale(0.1 -0.1)">
       <defs>
        <path id="DejaVuSans-32" d="M 1228 531 
L 3431 531 
L 3431 0 
L 469 0 
L 469 531 
Q 828 903 1448 1529 
Q 2069 2156 2228 2338 
Q 2531 2678 2651 2914 
Q 2772 3150 2772 3378 
Q 2772 3750 2511 3984 
Q 2250 4219 1831 4219 
Q 1534 4219 1204 4116 
Q 875 4013 500 3803 
L 500 4441 
Q 881 4594 1212 4672 
Q 1544 4750 1819 4750 
Q 2544 4750 2975 4387 
Q 3406 4025 3406 3419 
Q 3406 3131 3298 2873 
Q 3191 2616 2906 2266 
Q 2828 2175 2409 1742 
Q 1991 1309 1228 531 
z
" transform="scale(0.015625)"/>
        <path id="DejaVuSans-35" d="M 691 4666 
L 3169 4666 
L 3169 4134 
L 1269 4134 
L 1269 2991 
Q 1406 3038 1543 3061 
Q 1681 3084 1819 3084 
Q 2600 3084 3056 2656 
Q 3513 2228 3513 1497 
Q 3513 744 3044 326 
Q 2575 -91 1722 -91 
Q 1428 -91 1123 -41 
Q 819 9 494 109 
L 494 744 
Q 775 591 1075 516 
Q 1375 441 1709 441 
Q 2250 441 2565 725 
Q 2881 1009 2881 1497 
Q 2881 1984 2565 2268 
Q 2250 2553 1709 2553 
Q 1456 2553 1204 2497 
Q 953 2441 691 2322 
L 691 4666 
z
" transform="scale(0.015625)"/>
       </defs>
       <use xlink:href="#DejaVuSans-32"/>
       <use xlink:href="#DejaVuSans-35" x="63.623047"/>
       <use xlink:href="#DejaVuSans-30" x="127.246094"/>
      </g>
     </g>
    </g>
    <g id="xtick_3">
     <g id="line2d_3">
      <g>
       <use xlink:href="#m7dd32b9ed8" x="168.992161" y="315.88" style="fill: #2f4d5d; stroke: #2f4d5d; stroke-width: 0.8"/>
      </g>
     </g>
     <g id="text_3">
      <!-- 500 -->
      <g style="fill: #2f4d5d" transform="translate(159.448411 330.478438)scale(0.1 -0.1)">
       <use xlink:href="#DejaVuSans-35"/>
       <use xlink:href="#DejaVuSans-30" x="63.623047"/>
       <use xlink:href="#DejaVuSans-30" x="127.246094"/>
      </g>
     </g>
    </g>
    <g id="xtick_4">
     <g id="line2d_4">
      <g>
       <use xlink:href="#m7dd32b9ed8" x="208.425514" y="315.88" style="fill: #2f4d5d; stroke: #2f4d5d; stroke-width: 0.8"/>
      </g>
     </g>
     <g id="text_4">
      <!-- 750 -->
      <g style="fill: #2f4d5d" transform="translate(198.881764 330.478438)scale(0.1 -0.1)">
       <defs>
        <path id="DejaVuSans-37" d="M 525 4666 
L 3525 4666 
L 3525 4397 
L 1831 0 
L 1172 0 
L 2766 4134 
L 525 4134 
L 525 4666 
z
" transform="scale(0.015625)"/>
       </defs>
       <use xlink:href="#DejaVuSans-37"/>
       <use xlink:href="#DejaVuSans-35" x="63.623047"/>
       <use xlink:href="#DejaVuSans-30" x="127.246094"/>
      </g>
     </g>
    </g>
    <g id="xtick_5">
     <g id="line2d_5">
      <g>
       <use xlink:href="#m7dd32b9ed8" x="247.858867" y="315.88" style="fill: #2f4d5d; stroke: #2f4d5d; stroke-width: 0.8"/>
      </g>
     </g>
     <g id="text_5">
      <!-- 1000 -->
      <g style="fill: #2f4d5d" transform="translate(235.133867 330.478438)scale(0.1 -0.1)">
       <defs>
        <path id="DejaVuSans-31" d="M 794 531 
L 1825 531 
L 1825 4091 
L 703 3866 
L 703 4441 
L 1819 4666 
L 2450 4666 
L 2450 531 
L 3481 531 
L 3481 0 
L 794 0 
L 794 531 
z
" transform="scale(0.015625)"/>
       </defs>
       <use xlink:href="#DejaVuSans-31"/>
       <use xlink:href="#DejaVuSans-30" x="63.623047"/>
       <use xlink:href="#DejaVuSans-30" x="127.246094"/>
       <use xlink:href="#DejaVuSans-30" x="190.869141"/>
      </g>
     </g>
    </g>
    <g id="xtick_6">
     <g id="line2d_6">
      <g>
       <use xlink:href="#m7dd32b9ed8" x="287.29222" y="315.88" style="fill: #2f4d5d; stroke: #2f4d5d; stroke-width: 0.8"/>
      </g>
     </g>
     <g id="text_6">
      <!-- 1250 -->
      <g style="fill: #2f4d5d" transform="translate(274.56722 330.478438)scale(0.1 -0.1)">
       <use xlink:href="#DejaVuSans-31"/>
       <use xlink:href="#DejaVuSans-32" x="63.623047"/>
       <use xlink:href="#DejaVuSans-35" x="127.246094"/>
       <use xlink:href="#DejaVuSans-30" x="190.869141"/>
      </g>
     </g>
    </g>
    <g id="xtick_7">
     <g id="line2d_7">
      <g>
       <use xlink:href="#m7dd32b9ed8" x="326.725573" y="315.88" style="fill: #2f4d5d; stroke: #2f4d5d; stroke-width: 0.8"/>
      </g>
     </g>
     <g id="text_7">
      <!-- 1500 -->
      <g style="fill: #2f4d5d" transform="translate(314.000573 330.478438)scale(0.1 -0.1)">
       <use xlink:href="#DejaVuSans-31"/>
       <use xlink:href="#DejaVuSans-35" x="63.623047"/>
       <use xlink:href="#DejaVuSans-30" x="127.246094"/>
       <use xlink:href="#DejaVuSans-30" x="190.869141"/>
      </g>
     </g>
    </g>
    <g id="xtick_8">
     <g id="line2d_8">
      <g>
       <use xlink:href="#m7dd32b9ed8" x="366.158926" y="315.88" style="fill: #2f4d5d; stroke: #2f4d5d; stroke-width: 0.8"/>
      </g>
     </g>
     <g id="text_8">
      <!-- 1750 -->
      <g style="fill: #2f4d5d" transform="translate(353.433926 330.478438)scale(0.1 -0.1)">
       <use xlink:href="#DejaVuSans-31"/>
       <use xlink:href="#DejaVuSans-37" x="63.623047"/>
       <use xlink:href="#DejaVuSans-35" x="127.246094"/>
       <use xlink:href="#DejaVuSans-30" x="190.869141"/>
      </g>
     </g>
    </g>
    <g id="xtick_9">
     <g id="line2d_9">
      <g>
       <use xlink:href="#m7dd32b9ed8" x="405.592279" y="315.88" style="fill: #2f4d5d; stroke: #2f4d5d; stroke-width: 0.8"/>
      </g>
     </g>
     <g id="text_9">
      <!-- 2000 -->
      <g style="fill: #2f4d5d" transform="translate(392.867279 330.478438)scale(0.1 -0.1)">
       <use xlink:href="#DejaVuSans-32"/>
       <use xlink:href="#DejaVuSans-30" x="63.623047"/>
       <use xlink:href="#DejaVuSans-30" x="127.246094"/>
       <use xlink:href="#DejaVuSans-30" x="190.869141"/>
      </g>
     </g>
    </g>
    <g id="text_10">
     <!-- Episodes -->
     <g style="fill: #2f4d5d" transform="translate(218.865156 346.436094)scale(0.13 -0.13)">
      <defs>
       <path id="DejaVuSans-45" d="M 628 4666 
L 3578 4666 
L 3578 4134 
L 1259 4134 
L 1259 2753 
L 3481 2753 
L 3481 2222 
L 1259 2222 
L 1259 531 
L 3634 531 
L 3634 0 
L 628 0 
L 628 4666 
z
" transform="scale(0.015625)"/>
       <path id="DejaVuSans-70" d="M 1159 525 
L 1159 -1331 
L 581 -1331 
L 581 3500 
L 1159 3500 
L 1159 2969 
Q 1341 3281 1617 3432 
Q 1894 3584 2278 3584 
Q 2916 3584 3314 3078 
Q 3713 2572 3713 1747 
Q 3713 922 3314 415 
Q 2916 -91 2278 -91 
Q 1894 -91 1617 61 
Q 1341 213 1159 525 
z
M 3116 1747 
Q 3116 2381 2855 2742 
Q 2594 3103 2138 3103 
Q 1681 3103 1420 2742 
Q 1159 2381 1159 1747 
Q 1159 1113 1420 752 
Q 1681 391 2138 391 
Q 2594 391 2855 752 
Q 3116 1113 3116 1747 
z
" transform="scale(0.015625)"/>
       <path id="DejaVuSans-69" d="M 603 3500 
L 1178 3500 
L 1178 0 
L 603 0 
L 603 3500 
z
M 603 4863 
L 1178 4863 
L 1178 4134 
L 603 4134 
L 603 4863 
z
" transform="scale(0.015625)"/>
       <path id="DejaVuSans-73" d="M 2834 3397 
L 2834 2853 
Q 2591 2978 2328 3040 
Q 2066 3103 1784 3103 
Q 1356 3103 1142 2972 
Q 928 2841 928 2578 
Q 928 2378 1081 2264 
Q 1234 2150 1697 2047 
L 1894 2003 
Q 2506 1872 2764 1633 
Q 3022 1394 3022 966 
Q 3022 478 2636 193 
Q 2250 -91 1575 -91 
Q 1294 -91 989 -36 
Q 684 19 347 128 
L 347 722 
Q 666 556 975 473 
Q 1284 391 1588 391 
Q 1994 391 2212 530 
Q 2431 669 2431 922 
Q 2431 1156 2273 1281 
Q 2116 1406 1581 1522 
L 1381 1569 
Q 847 1681 609 1914 
Q 372 2147 372 2553 
Q 372 3047 722 3315 
Q 1072 3584 1716 3584 
Q 2034 3584 2315 3537 
Q 2597 3491 2834 3397 
z
" transform="scale(0.015625)"/>
       <path id="DejaVuSans-6f" d="M 1959 3097 
Q 1497 3097 1228 2736 
Q 959 2375 959 1747 
Q 959 1119 1226 758 
Q 1494 397 1959 397 
Q 2419 397 2687 759 
Q 2956 1122 2956 1747 
Q 2956 2369 2687 2733 
Q 2419 3097 1959 3097 
z
M 1959 3584 
Q 2709 3584 3137 3096 
Q 3566 2609 3566 1747 
Q 3566 888 3137 398 
Q 2709 -91 1959 -91 
Q 1206 -91 779 398 
Q 353 888 353 1747 
Q 353 2609 779 3096 
Q 1206 3584 1959 3584 
z
" transform="scale(0.015625)"/>
       <path id="DejaVuSans-64" d="M 2906 2969 
L 2906 4863 
L 3481 4863 
L 3481 0 
L 2906 0 
L 2906 525 
Q 2725 213 2448 61 
Q 2172 -91 1784 -91 
Q 1150 -91 751 415 
Q 353 922 353 1747 
Q 353 2572 751 3078 
Q 1150 3584 1784 3584 
Q 2172 3584 2448 3432 
Q 2725 3281 2906 2969 
z
M 947 1747 
Q 947 1113 1208 752 
Q 1469 391 1925 391 
Q 2381 391 2643 752 
Q 2906 1113 2906 1747 
Q 2906 2381 2643 2742 
Q 2381 3103 1925 3103 
Q 1469 3103 1208 2742 
Q 947 2381 947 1747 
z
" transform="scale(0.015625)"/>
       <path id="DejaVuSans-65" d="M 3597 1894 
L 3597 1613 
L 953 1613 
Q 991 1019 1311 708 
Q 1631 397 2203 397 
Q 2534 397 2845 478 
Q 3156 559 3463 722 
L 3463 178 
Q 3153 47 2828 -22 
Q 2503 -91 2169 -91 
Q 1331 -91 842 396 
Q 353 884 353 1716 
Q 353 2575 817 3079 
Q 1281 3584 2069 3584 
Q 2775 3584 3186 3129 
Q 3597 2675 3597 1894 
z
M 3022 2063 
Q 3016 2534 2758 2815 
Q 2500 3097 2075 3097 
Q 1594 3097 1305 2825 
Q 1016 2553 972 2059 
L 3022 2063 
z
" transform="scale(0.015625)"/>
      </defs>
      <use xlink:href="#DejaVuSans-45"/>
      <use xlink:href="#DejaVuSans-70" x="63.183594"/>
      <use xlink:href="#DejaVuSans-69" x="126.660156"/>
      <use xlink:href="#DejaVuSans-73" x="154.443359"/>
      <use xlink:href="#DejaVuSans-6f" x="206.542969"/>
      <use xlink:href="#DejaVuSans-64" x="267.724609"/>
      <use xlink:href="#DejaVuSans-65" x="331.201172"/>
      <use xlink:href="#DejaVuSans-73" x="392.724609"/>
     </g>
    </g>
   </g>
   <g id="matplotlib.axis_2">
    <g id="ytick_1">
     <g id="line2d_10">
      <defs>
       <path id="m09102687b1" d="M 0 0 
L -3.5 0 
" style="stroke: #2f4d5d; stroke-width: 0.8"/>
      </defs>
      <g>
       <use xlink:href="#m09102687b1" x="74.36" y="283.516843" style="fill: #2f4d5d; stroke: #2f4d5d; stroke-width: 0.8"/>
      </g>
     </g>
     <g id="text_11">
      <!-- −30000 -->
      <g style="fill: #2f4d5d" transform="translate(27.167812 287.316062)scale(0.1 -0.1)">
       <defs>
        <path id="DejaVuSans-2212" d="M 678 2272 
L 4684 2272 
L 4684 1741 
L 678 1741 
L 678 2272 
z
" transform="scale(0.015625)"/>
        <path id="DejaVuSans-33" d="M 2597 2516 
Q 3050 2419 3304 2112 
Q 3559 1806 3559 1356 
Q 3559 666 3084 287 
Q 2609 -91 1734 -91 
Q 1441 -91 1130 -33 
Q 819 25 488 141 
L 488 750 
Q 750 597 1062 519 
Q 1375 441 1716 441 
Q 2309 441 2620 675 
Q 2931 909 2931 1356 
Q 2931 1769 2642 2001 
Q 2353 2234 1838 2234 
L 1294 2234 
L 1294 2753 
L 1863 2753 
Q 2328 2753 2575 2939 
Q 2822 3125 2822 3475 
Q 2822 3834 2567 4026 
Q 2313 4219 1838 4219 
Q 1578 4219 1281 4162 
Q 984 4106 628 3988 
L 628 4550 
Q 988 4650 1302 4700 
Q 1616 4750 1894 4750 
Q 2613 4750 3031 4423 
Q 3450 4097 3450 3541 
Q 3450 3153 3228 2886 
Q 3006 2619 2597 2516 
z
" transform="scale(0.015625)"/>
       </defs>
       <use xlink:href="#DejaVuSans-2212"/>
       <use xlink:href="#DejaVuSans-33" x="83.789062"/>
       <use xlink:href="#DejaVuSans-30" x="147.412109"/>
       <use xlink:href="#DejaVuSans-30" x="211.035156"/>
       <use xlink:href="#DejaVuSans-30" x="274.658203"/>
       <use xlink:href="#DejaVuSans-30" x="338.28125"/>
      </g>
     </g>
    </g>
    <g id="ytick_2">
     <g id="line2d_11">
      <g>
       <use xlink:href="#m09102687b1" x="74.36" y="239.681497" style="fill: #2f4d5d; stroke: #2f4d5d; stroke-width: 0.8"/>
      </g>
     </g>
     <g id="text_12">
      <!-- −25000 -->
      <g style="fill: #2f4d5d" transform="translate(27.167812 243.480716)scale(0.1 -0.1)">
       <use xlink:href="#DejaVuSans-2212"/>
       <use xlink:href="#DejaVuSans-32" x="83.789062"/>
       <use xlink:href="#DejaVuSans-35" x="147.412109"/>
       <use xlink:href="#DejaVuSans-30" x="211.035156"/>
       <use xlink:href="#DejaVuSans-30" x="274.658203"/>
       <use xlink:href="#DejaVuSans-30" x="338.28125"/>
      </g>
     </g>
    </g>
    <g id="ytick_3">
     <g id="line2d_12">
      <g>
       <use xlink:href="#m09102687b1" x="74.36" y="195.846152" style="fill: #2f4d5d; stroke: #2f4d5d; stroke-width: 0.8"/>
      </g>
     </g>
     <g id="text_13">
      <!-- −20000 -->
      <g style="fill: #2f4d5d" transform="translate(27.167812 199.64537)scale(0.1 -0.1)">
       <use xlink:href="#DejaVuSans-2212"/>
       <use xlink:href="#DejaVuSans-32" x="83.789062"/>
       <use xlink:href="#DejaVuSans-30" x="147.412109"/>
       <use xlink:href="#DejaVuSans-30" x="211.035156"/>
       <use xlink:href="#DejaVuSans-30" x="274.658203"/>
       <use xlink:href="#DejaVuSans-30" x="338.28125"/>
      </g>
     </g>
    </g>
    <g id="ytick_4">
     <g id="line2d_13">
      <g>
       <use xlink:href="#m09102687b1" x="74.36" y="152.010806" style="fill: #2f4d5d; stroke: #2f4d5d; stroke-width: 0.8"/>
      </g>
     </g>
     <g id="text_14">
      <!-- −15000 -->
      <g style="fill: #2f4d5d" transform="translate(27.167812 155.810025)scale(0.1 -0.1)">
       <use xlink:href="#DejaVuSans-2212"/>
       <use xlink:href="#DejaVuSans-31" x="83.789062"/>
       <use xlink:href="#DejaVuSans-35" x="147.412109"/>
       <use xlink:href="#DejaVuSans-30" x="211.035156"/>
       <use xlink:href="#DejaVuSans-30" x="274.658203"/>
       <use xlink:href="#DejaVuSans-30" x="338.28125"/>
      </g>
     </g>
    </g>
    <g id="ytick_5">
     <g id="line2d_14">
      <g>
       <use xlink:href="#m09102687b1" x="74.36" y="108.17546" style="fill: #2f4d5d; stroke: #2f4d5d; stroke-width: 0.8"/>
      </g>
     </g>
     <g id="text_15">
      <!-- −10000 -->
      <g style="fill: #2f4d5d" transform="translate(27.167812 111.974679)scale(0.1 -0.1)">
       <use xlink:href="#DejaVuSans-2212"/>
       <use xlink:href="#DejaVuSans-31" x="83.789062"/>
       <use xlink:href="#DejaVuSans-30" x="147.412109"/>
       <use xlink:href="#DejaVuSans-30" x="211.035156"/>
       <use xlink:href="#DejaVuSans-30" x="274.658203"/>
       <use xlink:href="#DejaVuSans-30" x="338.28125"/>
      </g>
     </g>
    </g>
    <g id="ytick_6">
     <g id="line2d_15">
      <g>
       <use xlink:href="#m09102687b1" x="74.36" y="64.340115" style="fill: #2f4d5d; stroke: #2f4d5d; stroke-width: 0.8"/>
      </g>
     </g>
     <g id="text_16">
      <!-- −5000 -->
      <g style="fill: #2f4d5d" transform="translate(33.530313 68.139334)scale(0.1 -0.1)">
       <use xlink:href="#DejaVuSans-2212"/>
       <use xlink:href="#DejaVuSans-35" x="83.789062"/>
       <use xlink:href="#DejaVuSans-30" x="147.412109"/>
       <use xlink:href="#DejaVuSans-30" x="211.035156"/>
       <use xlink:href="#DejaVuSans-30" x="274.658203"/>
      </g>
     </g>
    </g>
    <g id="text_17">
     <!-- Reward -->
     <g style="fill: #2f4d5d" transform="translate(20.464219 201.587422)rotate(-90)scale(0.13 -0.13)">
      <defs>
       <path id="DejaVuSans-52" d="M 2841 2188 
Q 3044 2119 3236 1894 
Q 3428 1669 3622 1275 
L 4263 0 
L 3584 0 
L 2988 1197 
Q 2756 1666 2539 1819 
Q 2322 1972 1947 1972 
L 1259 1972 
L 1259 0 
L 628 0 
L 628 4666 
L 2053 4666 
Q 2853 4666 3247 4331 
Q 3641 3997 3641 3322 
Q 3641 2881 3436 2590 
Q 3231 2300 2841 2188 
z
M 1259 4147 
L 1259 2491 
L 2053 2491 
Q 2509 2491 2742 2702 
Q 2975 2913 2975 3322 
Q 2975 3731 2742 3939 
Q 2509 4147 2053 4147 
L 1259 4147 
z
" transform="scale(0.015625)"/>
       <path id="DejaVuSans-77" d="M 269 3500 
L 844 3500 
L 1563 769 
L 2278 3500 
L 2956 3500 
L 3675 769 
L 4391 3500 
L 4966 3500 
L 4050 0 
L 3372 0 
L 2619 2869 
L 1863 0 
L 1184 0 
L 269 3500 
z
" transform="scale(0.015625)"/>
       <path id="DejaVuSans-61" d="M 2194 1759 
Q 1497 1759 1228 1600 
Q 959 1441 959 1056 
Q 959 750 1161 570 
Q 1363 391 1709 391 
Q 2188 391 2477 730 
Q 2766 1069 2766 1631 
L 2766 1759 
L 2194 1759 
z
M 3341 1997 
L 3341 0 
L 2766 0 
L 2766 531 
Q 2569 213 2275 61 
Q 1981 -91 1556 -91 
Q 1019 -91 701 211 
Q 384 513 384 1019 
Q 384 1609 779 1909 
Q 1175 2209 1959 2209 
L 2766 2209 
L 2766 2266 
Q 2766 2663 2505 2880 
Q 2244 3097 1772 3097 
Q 1472 3097 1187 3025 
Q 903 2953 641 2809 
L 641 3341 
Q 956 3463 1253 3523 
Q 1550 3584 1831 3584 
Q 2591 3584 2966 3190 
Q 3341 2797 3341 1997 
z
" transform="scale(0.015625)"/>
       <path id="DejaVuSans-72" d="M 2631 2963 
Q 2534 3019 2420 3045 
Q 2306 3072 2169 3072 
Q 1681 3072 1420 2755 
Q 1159 2438 1159 1844 
L 1159 0 
L 581 0 
L 581 3500 
L 1159 3500 
L 1159 2956 
Q 1341 3275 1631 3429 
Q 1922 3584 2338 3584 
Q 2397 3584 2469 3576 
Q 2541 3569 2628 3553 
L 2631 2963 
z
" transform="scale(0.015625)"/>
      </defs>
      <use xlink:href="#DejaVuSans-52"/>
      <use xlink:href="#DejaVuSans-65" x="64.982422"/>
      <use xlink:href="#DejaVuSans-77" x="126.505859"/>
      <use xlink:href="#DejaVuSans-61" x="208.292969"/>
      <use xlink:href="#DejaVuSans-72" x="269.572266"/>
      <use xlink:href="#DejaVuSans-64" x="308.935547"/>
     </g>
    </g>
   </g>
   <g id="line2d_16">
    <path d="M 90.125455 263.486419 
L 98.012125 303.289091 
L 105.898796 295.722997 
L 113.785466 299.521639 
L 121.672137 296.346463 
L 129.558808 293.970574 
L 137.445478 289.626218 
L 145.332149 285.165537 
L 153.218819 260.282107 
L 161.10549 249.872247 
L 168.992161 208.963589 
L 176.878831 158.792555 
L 184.765502 138.800243 
L 192.652172 139.233095 
L 200.538843 141.639393 
L 208.425514 99.486424 
L 216.312184 94.682959 
L 224.198855 92.770038 
L 232.085525 79.442479 
L 239.972196 107.633995 
L 247.858867 97.902209 
L 255.745537 63.991706 
L 263.632208 66.565485 
L 271.518879 66.605614 
L 279.405549 84.530841 
L 287.29222 78.921538 
L 295.17889 81.213233 
L 303.065561 64.20496 
L 310.952232 81.002465 
L 318.838902 87.150866 
L 326.725573 93.235887 
L 334.612243 75.250603 
L 342.498914 60.272738 
L 350.385585 92.036891 
L 358.272255 66.062789 
L 366.158926 85.079401 
L 374.045596 104.333699 
L 381.932267 86.817824 
L 389.818938 83.583018 
L 397.705608 60.73917 
L 405.434545 70.628288 
" clip-path="url(#p329c6904a7)" style="fill: none; stroke: #004079; stroke-width: 1.5; stroke-linecap: square"/>
   </g>
   <g id="line2d_17">
    <path d="M 90.125455 275.758295 
L 98.012125 302.689666 
L 105.898796 301.393993 
L 113.785466 301.051409 
L 121.672137 296.417955 
L 129.558808 293.384511 
L 137.445478 292.876091 
L 145.332149 281.741833 
L 153.218819 261.911323 
L 161.10549 227.488099 
L 168.992161 190.562154 
L 176.878831 147.738855 
L 184.765502 145.405976 
L 192.652172 116.193013 
L 200.538843 90.366313 
L 208.425514 99.798025 
L 216.312184 72.674081 
L 224.198855 93.697617 
L 232.085525 95.578973 
L 239.972196 73.862252 
L 247.858867 80.342135 
" clip-path="url(#p329c6904a7)" style="fill: none; stroke-dasharray: 5.55,2.4; stroke-dashoffset: 0; stroke: #004079; stroke-width: 1.5"/>
   </g>
   <g id="line2d_18">
    <path d="M 90.125455 272.52239 
L 98.012125 301.911452 
L 105.898796 302.607771 
L 113.785466 299.788916 
L 121.672137 295.387527 
L 129.558808 291.056713 
L 137.445478 289.195724 
L 145.332149 275.129115 
L 153.218819 260.395275 
L 161.10549 224.113671 
L 168.992161 194.389034 
L 176.878831 157.787808 
L 184.765502 152.061089 
L 192.652172 139.866625 
L 200.538843 95.880209 
L 208.425514 102.489191 
L 216.312184 81.198375 
L 224.198855 75.30002 
L 232.085525 70.412209 
L 239.972196 73.815064 
L 247.858867 79.921027 
" clip-path="url(#p329c6904a7)" style="fill: none; stroke-dasharray: 5.55,2.4; stroke-dashoffset: 0; stroke: #51bceb; stroke-width: 1.5"/>
   </g>
   <g id="line2d_19">
    <path d="M 90.125455 275.758295 
L 98.012125 302.689666 
L 105.898796 301.393993 
L 113.785466 301.051409 
L 121.672137 296.417955 
L 129.558808 293.384511 
L 137.445478 292.876091 
L 145.332149 281.741833 
L 153.218819 261.911323 
L 161.10549 227.488099 
L 168.992161 190.562154 
L 176.878831 147.738855 
L 184.765502 145.405976 
L 192.652172 116.193013 
L 200.538843 90.366313 
L 208.425514 99.798025 
L 216.312184 72.674081 
L 224.198855 93.697617 
L 232.085525 95.578973 
L 239.972196 73.862252 
L 247.858867 80.342135 
" clip-path="url(#p329c6904a7)" style="fill: none; stroke-dasharray: 9.6,2.4,1.5,2.4; stroke-dashoffset: 0; stroke: #004079; stroke-width: 1.5"/>
   </g>
   <g id="line2d_20">
    <path d="M 90.125455 293.90647 
L 98.012125 302.060281 
L 105.898796 300.818895 
L 113.785466 299.546185 
L 121.672137 292.844702 
L 129.558808 290.551171 
L 137.445478 287.344764 
L 145.332149 273.243471 
L 153.218819 250.927903 
L 161.10549 301.057433 
L 168.992161 301.069306 
L 176.878831 302.005287 
L 184.765502 298.74799 
L 192.652172 293.961933 
L 200.538843 291.759031 
L 208.425514 281.919984 
L 216.312184 270.943468 
L 224.198855 249.97438 
L 232.085525 231.565946 
L 239.972196 192.747684 
L 247.858867 159.212184 
L 255.745537 51.470909 
L 263.632208 53.199925 
L 271.518879 51.823008 
L 279.405549 53.87363 
L 287.29222 65.372425 
L 295.17889 57.526298 
L 303.065561 68.286862 
L 310.952232 55.381209 
L 318.838902 61.713991 
L 326.725573 63.098765 
L 334.612243 81.748554 
L 342.498914 70.089595 
L 350.385585 79.87876 
L 358.272255 82.491923 
L 366.158926 70.978096 
L 374.045596 68.446556 
L 381.932267 81.934831 
L 389.818938 88.978154 
L 397.705608 105.826426 
L 405.434545 79.801156 
" clip-path="url(#p329c6904a7)" style="fill: none; stroke-dasharray: 9.6,2.4,1.5,2.4; stroke-dashoffset: 0; stroke: #51bceb; stroke-width: 1.5"/>
   </g>
   <g id="line2d_21">
    <path d="M 90.125455 286.248949 
L 98.012125 302.391351 
L 105.898796 301.419356 
L 113.785466 297.867549 
L 121.672137 295.103828 
L 129.558808 293.51178 
L 137.445478 284.341722 
L 145.332149 281.031424 
L 153.218819 255.593033 
L 161.10549 219.083018 
L 168.992161 191.705262 
L 176.878831 169.654581 
L 184.765502 151.278179 
L 192.652172 112.773134 
L 200.538843 129.51457 
L 208.425514 95.27718 
L 216.312184 111.825796 
L 224.198855 87.007543 
L 232.085525 93.12906 
L 239.972196 83.552718 
L 247.858867 87.443777 
" clip-path="url(#p329c6904a7)" style="fill: none; stroke-dasharray: 1.5,2.475; stroke-dashoffset: 0; stroke: #004079; stroke-width: 1.5"/>
   </g>
   <g id="patch_3">
    <path d="M 74.36 315.88 
L 74.36 38.88 
" style="fill: none; stroke: #2f4d5d; stroke-width: 0.8; stroke-linejoin: miter; stroke-linecap: square"/>
   </g>
   <g id="patch_4">
    <path d="M 421.2 315.88 
L 421.2 38.88 
" style="fill: none; stroke: #2f4d5d; stroke-width: 0.8; stroke-linejoin: miter; stroke-linecap: square"/>
   </g>
   <g id="patch_5">
    <path d="M 74.36 315.88 
L 421.2 315.88 
" style="fill: none; stroke: #2f4d5d; stroke-width: 0.8; stroke-linejoin: miter; stroke-linecap: square"/>
   </g>
   <g id="patch_6">
    <path d="M 74.36 38.88 
L 421.2 38.88 
" style="fill: none; stroke: #2f4d5d; stroke-width: 0.8; stroke-linejoin: miter; stroke-linecap: square"/>
   </g>
   <g id="legend_1">
    <g id="patch_7">
     <path d="M 224.579687 310.88 
L 414.2 310.88 
Q 416.2 310.88 416.2 308.88 
L 416.2 221.81125 
Q 416.2 219.81125 414.2 219.81125 
L 224.579687 219.81125 
Q 222.579687 219.81125 222.579687 221.81125 
L 222.579687 308.88 
Q 222.579687 310.88 224.579687 310.88 
z
" style="fill: #ffffff; opacity: 0.8; stroke: #cccccc; stroke-linejoin: miter"/>
    </g>
    <g id="line2d_22">
     <path d="M 226.579687 227.909688 
L 236.579687 227.909688 
L 246.579687 227.909688 
" style="fill: none; stroke: #004079; stroke-width: 1.5; stroke-linecap: square"/>
    </g>
    <g id="text_18">
     <!-- Single agent -->
     <g style="fill: #2f4d5d" transform="translate(254.579687 231.409688)scale(0.1 -0.1)">
      <defs>
       <path id="DejaVuSans-53" d="M 3425 4513 
L 3425 3897 
Q 3066 4069 2747 4153 
Q 2428 4238 2131 4238 
Q 1616 4238 1336 4038 
Q 1056 3838 1056 3469 
Q 1056 3159 1242 3001 
Q 1428 2844 1947 2747 
L 2328 2669 
Q 3034 2534 3370 2195 
Q 3706 1856 3706 1288 
Q 3706 609 3251 259 
Q 2797 -91 1919 -91 
Q 1588 -91 1214 -16 
Q 841 59 441 206 
L 441 856 
Q 825 641 1194 531 
Q 1563 422 1919 422 
Q 2459 422 2753 634 
Q 3047 847 3047 1241 
Q 3047 1584 2836 1778 
Q 2625 1972 2144 2069 
L 1759 2144 
Q 1053 2284 737 2584 
Q 422 2884 422 3419 
Q 422 4038 858 4394 
Q 1294 4750 2059 4750 
Q 2388 4750 2728 4690 
Q 3069 4631 3425 4513 
z
" transform="scale(0.015625)"/>
       <path id="DejaVuSans-6e" d="M 3513 2113 
L 3513 0 
L 2938 0 
L 2938 2094 
Q 2938 2591 2744 2837 
Q 2550 3084 2163 3084 
Q 1697 3084 1428 2787 
Q 1159 2491 1159 1978 
L 1159 0 
L 581 0 
L 581 3500 
L 1159 3500 
L 1159 2956 
Q 1366 3272 1645 3428 
Q 1925 3584 2291 3584 
Q 2894 3584 3203 3211 
Q 3513 2838 3513 2113 
z
" transform="scale(0.015625)"/>
       <path id="DejaVuSans-67" d="M 2906 1791 
Q 2906 2416 2648 2759 
Q 2391 3103 1925 3103 
Q 1463 3103 1205 2759 
Q 947 2416 947 1791 
Q 947 1169 1205 825 
Q 1463 481 1925 481 
Q 2391 481 2648 825 
Q 2906 1169 2906 1791 
z
M 3481 434 
Q 3481 -459 3084 -895 
Q 2688 -1331 1869 -1331 
Q 1566 -1331 1297 -1286 
Q 1028 -1241 775 -1147 
L 775 -588 
Q 1028 -725 1275 -790 
Q 1522 -856 1778 -856 
Q 2344 -856 2625 -561 
Q 2906 -266 2906 331 
L 2906 616 
Q 2728 306 2450 153 
Q 2172 0 1784 0 
Q 1141 0 747 490 
Q 353 981 353 1791 
Q 353 2603 747 3093 
Q 1141 3584 1784 3584 
Q 2172 3584 2450 3431 
Q 2728 3278 2906 2969 
L 2906 3500 
L 3481 3500 
L 3481 434 
z
" transform="scale(0.015625)"/>
       <path id="DejaVuSans-6c" d="M 603 4863 
L 1178 4863 
L 1178 0 
L 603 0 
L 603 4863 
z
" transform="scale(0.015625)"/>
       <path id="DejaVuSans-20" transform="scale(0.015625)"/>
       <path id="DejaVuSans-74" d="M 1172 4494 
L 1172 3500 
L 2356 3500 
L 2356 3053 
L 1172 3053 
L 1172 1153 
Q 1172 725 1289 603 
Q 1406 481 1766 481 
L 2356 481 
L 2356 0 
L 1766 0 
Q 1100 0 847 248 
Q 594 497 594 1153 
L 594 3053 
L 172 3053 
L 172 3500 
L 594 3500 
L 594 4494 
L 1172 4494 
z
" transform="scale(0.015625)"/>
      </defs>
      <use xlink:href="#DejaVuSans-53"/>
      <use xlink:href="#DejaVuSans-69" x="63.476562"/>
      <use xlink:href="#DejaVuSans-6e" x="91.259766"/>
      <use xlink:href="#DejaVuSans-67" x="154.638672"/>
      <use xlink:href="#DejaVuSans-6c" x="218.115234"/>
      <use xlink:href="#DejaVuSans-65" x="245.898438"/>
      <use xlink:href="#DejaVuSans-20" x="307.421875"/>
      <use xlink:href="#DejaVuSans-61" x="339.208984"/>
      <use xlink:href="#DejaVuSans-67" x="400.488281"/>
      <use xlink:href="#DejaVuSans-65" x="463.964844"/>
      <use xlink:href="#DejaVuSans-6e" x="525.488281"/>
      <use xlink:href="#DejaVuSans-74" x="588.867188"/>
     </g>
    </g>
    <g id="line2d_23">
     <path d="M 226.579687 242.587813 
L 236.579687 242.587813 
L 246.579687 242.587813 
" style="fill: none; stroke-dasharray: 5.55,2.4; stroke-dashoffset: 0; stroke: #004079; stroke-width: 1.5"/>
    </g>
    <g id="text_19">
     <!-- 2 agent no-com homogeneous -->
     <g style="fill: #2f4d5d" transform="translate(254.579687 246.087813)scale(0.1 -0.1)">
      <defs>
       <path id="DejaVuSans-2d" d="M 313 2009 
L 1997 2009 
L 1997 1497 
L 313 1497 
L 313 2009 
z
" transform="scale(0.015625)"/>
       <path id="DejaVuSans-63" d="M 3122 3366 
L 3122 2828 
Q 2878 2963 2633 3030 
Q 2388 3097 2138 3097 
Q 1578 3097 1268 2742 
Q 959 2388 959 1747 
Q 959 1106 1268 751 
Q 1578 397 2138 397 
Q 2388 397 2633 464 
Q 2878 531 3122 666 
L 3122 134 
Q 2881 22 2623 -34 
Q 2366 -91 2075 -91 
Q 1284 -91 818 406 
Q 353 903 353 1747 
Q 353 2603 823 3093 
Q 1294 3584 2113 3584 
Q 2378 3584 2631 3529 
Q 2884 3475 3122 3366 
z
" transform="scale(0.015625)"/>
       <path id="DejaVuSans-6d" d="M 3328 2828 
Q 3544 3216 3844 3400 
Q 4144 3584 4550 3584 
Q 5097 3584 5394 3201 
Q 5691 2819 5691 2113 
L 5691 0 
L 5113 0 
L 5113 2094 
Q 5113 2597 4934 2840 
Q 4756 3084 4391 3084 
Q 3944 3084 3684 2787 
Q 3425 2491 3425 1978 
L 3425 0 
L 2847 0 
L 2847 2094 
Q 2847 2600 2669 2842 
Q 2491 3084 2119 3084 
Q 1678 3084 1418 2786 
Q 1159 2488 1159 1978 
L 1159 0 
L 581 0 
L 581 3500 
L 1159 3500 
L 1159 2956 
Q 1356 3278 1631 3431 
Q 1906 3584 2284 3584 
Q 2666 3584 2933 3390 
Q 3200 3197 3328 2828 
z
" transform="scale(0.015625)"/>
       <path id="DejaVuSans-68" d="M 3513 2113 
L 3513 0 
L 2938 0 
L 2938 2094 
Q 2938 2591 2744 2837 
Q 2550 3084 2163 3084 
Q 1697 3084 1428 2787 
Q 1159 2491 1159 1978 
L 1159 0 
L 581 0 
L 581 4863 
L 1159 4863 
L 1159 2956 
Q 1366 3272 1645 3428 
Q 1925 3584 2291 3584 
Q 2894 3584 3203 3211 
Q 3513 2838 3513 2113 
z
" transform="scale(0.015625)"/>
       <path id="DejaVuSans-75" d="M 544 1381 
L 544 3500 
L 1119 3500 
L 1119 1403 
Q 1119 906 1312 657 
Q 1506 409 1894 409 
Q 2359 409 2629 706 
Q 2900 1003 2900 1516 
L 2900 3500 
L 3475 3500 
L 3475 0 
L 2900 0 
L 2900 538 
Q 2691 219 2414 64 
Q 2138 -91 1772 -91 
Q 1169 -91 856 284 
Q 544 659 544 1381 
z
M 1991 3584 
L 1991 3584 
z
" transform="scale(0.015625)"/>
      </defs>
      <use xlink:href="#DejaVuSans-32"/>
      <use xlink:href="#DejaVuSans-20" x="63.623047"/>
      <use xlink:href="#DejaVuSans-61" x="95.410156"/>
      <use xlink:href="#DejaVuSans-67" x="156.689453"/>
      <use xlink:href="#DejaVuSans-65" x="220.166016"/>
      <use xlink:href="#DejaVuSans-6e" x="281.689453"/>
      <use xlink:href="#DejaVuSans-74" x="345.068359"/>
      <use xlink:href="#DejaVuSans-20" x="384.277344"/>
      <use xlink:href="#DejaVuSans-6e" x="416.064453"/>
      <use xlink:href="#DejaVuSans-6f" x="479.443359"/>
      <use xlink:href="#DejaVuSans-2d" x="542.5"/>
      <use xlink:href="#DejaVuSans-63" x="578.583984"/>
      <use xlink:href="#DejaVuSans-6f" x="633.564453"/>
      <use xlink:href="#DejaVuSans-6d" x="694.746094"/>
      <use xlink:href="#DejaVuSans-20" x="792.158203"/>
      <use xlink:href="#DejaVuSans-68" x="823.945312"/>
      <use xlink:href="#DejaVuSans-6f" x="887.324219"/>
      <use xlink:href="#DejaVuSans-6d" x="948.505859"/>
      <use xlink:href="#DejaVuSans-6f" x="1045.917969"/>
      <use xlink:href="#DejaVuSans-67" x="1107.099609"/>
      <use xlink:href="#DejaVuSans-65" x="1170.576172"/>
      <use xlink:href="#DejaVuSans-6e" x="1232.099609"/>
      <use xlink:href="#DejaVuSans-65" x="1295.478516"/>
      <use xlink:href="#DejaVuSans-6f" x="1357.001953"/>
      <use xlink:href="#DejaVuSans-75" x="1418.183594"/>
      <use xlink:href="#DejaVuSans-73" x="1481.5625"/>
     </g>
    </g>
    <g id="line2d_24">
     <path d="M 226.579687 257.265938 
L 236.579687 257.265938 
L 246.579687 257.265938 
" style="fill: none; stroke-dasharray: 5.55,2.4; stroke-dashoffset: 0; stroke: #51bceb; stroke-width: 1.5"/>
    </g>
    <g id="text_20">
     <!-- 2 agent no-com heterogeneous -->
     <g style="fill: #2f4d5d" transform="translate(254.579687 260.765938)scale(0.1 -0.1)">
      <use xlink:href="#DejaVuSans-32"/>
      <use xlink:href="#DejaVuSans-20" x="63.623047"/>
      <use xlink:href="#DejaVuSans-61" x="95.410156"/>
      <use xlink:href="#DejaVuSans-67" x="156.689453"/>
      <use xlink:href="#DejaVuSans-65" x="220.166016"/>
      <use xlink:href="#DejaVuSans-6e" x="281.689453"/>
      <use xlink:href="#DejaVuSans-74" x="345.068359"/>
      <use xlink:href="#DejaVuSans-20" x="384.277344"/>
      <use xlink:href="#DejaVuSans-6e" x="416.064453"/>
      <use xlink:href="#DejaVuSans-6f" x="479.443359"/>
      <use xlink:href="#DejaVuSans-2d" x="542.5"/>
      <use xlink:href="#DejaVuSans-63" x="578.583984"/>
      <use xlink:href="#DejaVuSans-6f" x="633.564453"/>
      <use xlink:href="#DejaVuSans-6d" x="694.746094"/>
      <use xlink:href="#DejaVuSans-20" x="792.158203"/>
      <use xlink:href="#DejaVuSans-68" x="823.945312"/>
      <use xlink:href="#DejaVuSans-65" x="887.324219"/>
      <use xlink:href="#DejaVuSans-74" x="948.847656"/>
      <use xlink:href="#DejaVuSans-65" x="988.056641"/>
      <use xlink:href="#DejaVuSans-72" x="1049.580078"/>
      <use xlink:href="#DejaVuSans-6f" x="1088.443359"/>
      <use xlink:href="#DejaVuSans-67" x="1149.625"/>
      <use xlink:href="#DejaVuSans-65" x="1213.101562"/>
      <use xlink:href="#DejaVuSans-6e" x="1274.625"/>
      <use xlink:href="#DejaVuSans-65" x="1338.003906"/>
      <use xlink:href="#DejaVuSans-6f" x="1399.527344"/>
      <use xlink:href="#DejaVuSans-75" x="1460.708984"/>
      <use xlink:href="#DejaVuSans-73" x="1524.087891"/>
     </g>
    </g>
    <g id="line2d_25">
     <path d="M 226.579687 271.944063 
L 236.579687 271.944063 
L 246.579687 271.944063 
" style="fill: none; stroke-dasharray: 9.6,2.4,1.5,2.4; stroke-dashoffset: 0; stroke: #004079; stroke-width: 1.5"/>
    </g>
    <g id="text_21">
     <!-- 2 agent com homogeneous -->
     <g style="fill: #2f4d5d" transform="translate(254.579687 275.444063)scale(0.1 -0.1)">
      <use xlink:href="#DejaVuSans-32"/>
      <use xlink:href="#DejaVuSans-20" x="63.623047"/>
      <use xlink:href="#DejaVuSans-61" x="95.410156"/>
      <use xlink:href="#DejaVuSans-67" x="156.689453"/>
      <use xlink:href="#DejaVuSans-65" x="220.166016"/>
      <use xlink:href="#DejaVuSans-6e" x="281.689453"/>
      <use xlink:href="#DejaVuSans-74" x="345.068359"/>
      <use xlink:href="#DejaVuSans-20" x="384.277344"/>
      <use xlink:href="#DejaVuSans-63" x="416.064453"/>
      <use xlink:href="#DejaVuSans-6f" x="471.044922"/>
      <use xlink:href="#DejaVuSans-6d" x="532.226562"/>
      <use xlink:href="#DejaVuSans-20" x="629.638672"/>
      <use xlink:href="#DejaVuSans-68" x="661.425781"/>
      <use xlink:href="#DejaVuSans-6f" x="724.804688"/>
      <use xlink:href="#DejaVuSans-6d" x="785.986328"/>
      <use xlink:href="#DejaVuSans-6f" x="883.398438"/>
      <use xlink:href="#DejaVuSans-67" x="944.580078"/>
      <use xlink:href="#DejaVuSans-65" x="1008.056641"/>
      <use xlink:href="#DejaVuSans-6e" x="1069.580078"/>
      <use xlink:href="#DejaVuSans-65" x="1132.958984"/>
      <use xlink:href="#DejaVuSans-6f" x="1194.482422"/>
      <use xlink:href="#DejaVuSans-75" x="1255.664062"/>
      <use xlink:href="#DejaVuSans-73" x="1319.042969"/>
     </g>
    </g>
    <g id="line2d_26">
     <path d="M 226.579687 286.622187 
L 236.579687 286.622187 
L 246.579687 286.622187 
" style="fill: none; stroke-dasharray: 9.6,2.4,1.5,2.4; stroke-dashoffset: 0; stroke: #51bceb; stroke-width: 1.5"/>
    </g>
    <g id="text_22">
     <!-- 2 agent com heterogeneous -->
     <g style="fill: #2f4d5d" transform="translate(254.579687 290.122187)scale(0.1 -0.1)">
      <use xlink:href="#DejaVuSans-32"/>
      <use xlink:href="#DejaVuSans-20" x="63.623047"/>
      <use xlink:href="#DejaVuSans-61" x="95.410156"/>
      <use xlink:href="#DejaVuSans-67" x="156.689453"/>
      <use xlink:href="#DejaVuSans-65" x="220.166016"/>
      <use xlink:href="#DejaVuSans-6e" x="281.689453"/>
      <use xlink:href="#DejaVuSans-74" x="345.068359"/>
      <use xlink:href="#DejaVuSans-20" x="384.277344"/>
      <use xlink:href="#DejaVuSans-63" x="416.064453"/>
      <use xlink:href="#DejaVuSans-6f" x="471.044922"/>
      <use xlink:href="#DejaVuSans-6d" x="532.226562"/>
      <use xlink:href="#DejaVuSans-20" x="629.638672"/>
      <use xlink:href="#DejaVuSans-68" x="661.425781"/>
      <use xlink:href="#DejaVuSans-65" x="724.804688"/>
      <use xlink:href="#DejaVuSans-74" x="786.328125"/>
      <use xlink:href="#DejaVuSans-65" x="825.537109"/>
      <use xlink:href="#DejaVuSans-72" x="887.060547"/>
      <use xlink:href="#DejaVuSans-6f" x="925.923828"/>
      <use xlink:href="#DejaVuSans-67" x="987.105469"/>
      <use xlink:href="#DejaVuSans-65" x="1050.582031"/>
      <use xlink:href="#DejaVuSans-6e" x="1112.105469"/>
      <use xlink:href="#DejaVuSans-65" x="1175.484375"/>
      <use xlink:href="#DejaVuSans-6f" x="1237.007812"/>
      <use xlink:href="#DejaVuSans-75" x="1298.189453"/>
      <use xlink:href="#DejaVuSans-73" x="1361.568359"/>
     </g>
    </g>
    <g id="line2d_27">
     <path d="M 226.579687 301.300313 
L 236.579687 301.300313 
L 246.579687 301.300313 
" style="fill: none; stroke-dasharray: 1.5,2.475; stroke-dashoffset: 0; stroke: #004079; stroke-width: 1.5"/>
    </g>
    <g id="text_23">
     <!-- 5 agent com heterogeneous -->
     <g style="fill: #2f4d5d" transform="translate(254.579687 304.800313)scale(0.1 -0.1)">
      <use xlink:href="#DejaVuSans-35"/>
      <use xlink:href="#DejaVuSans-20" x="63.623047"/>
      <use xlink:href="#DejaVuSans-61" x="95.410156"/>
      <use xlink:href="#DejaVuSans-67" x="156.689453"/>
      <use xlink:href="#DejaVuSans-65" x="220.166016"/>
      <use xlink:href="#DejaVuSans-6e" x="281.689453"/>
      <use xlink:href="#DejaVuSans-74" x="345.068359"/>
      <use xlink:href="#DejaVuSans-20" x="384.277344"/>
      <use xlink:href="#DejaVuSans-63" x="416.064453"/>
      <use xlink:href="#DejaVuSans-6f" x="471.044922"/>
      <use xlink:href="#DejaVuSans-6d" x="532.226562"/>
      <use xlink:href="#DejaVuSans-20" x="629.638672"/>
      <use xlink:href="#DejaVuSans-68" x="661.425781"/>
      <use xlink:href="#DejaVuSans-65" x="724.804688"/>
      <use xlink:href="#DejaVuSans-74" x="786.328125"/>
      <use xlink:href="#DejaVuSans-65" x="825.537109"/>
      <use xlink:href="#DejaVuSans-72" x="887.060547"/>
      <use xlink:href="#DejaVuSans-6f" x="925.923828"/>
      <use xlink:href="#DejaVuSans-67" x="987.105469"/>
      <use xlink:href="#DejaVuSans-65" x="1050.582031"/>
      <use xlink:href="#DejaVuSans-6e" x="1112.105469"/>
      <use xlink:href="#DejaVuSans-65" x="1175.484375"/>
      <use xlink:href="#DejaVuSans-6f" x="1237.007812"/>
      <use xlink:href="#DejaVuSans-75" x="1298.189453"/>
      <use xlink:href="#DejaVuSans-73" x="1361.568359"/>
     </g>
    </g>
   </g>
  </g>
  <g id="text_24">
   <!-- Running rewards during training -->
   <g style="fill: #2f4d5d" transform="translate(70.786406 20.877187)scale(0.18 -0.18)">
    <use xlink:href="#DejaVuSans-52"/>
    <use xlink:href="#DejaVuSans-75" x="64.982422"/>
    <use xlink:href="#DejaVuSans-6e" x="128.361328"/>
    <use xlink:href="#DejaVuSans-6e" x="191.740234"/>
    <use xlink:href="#DejaVuSans-69" x="255.119141"/>
    <use xlink:href="#DejaVuSans-6e" x="282.902344"/>
    <use xlink:href="#DejaVuSans-67" x="346.28125"/>
    <use xlink:href="#DejaVuSans-20" x="409.757812"/>
    <use xlink:href="#DejaVuSans-72" x="441.544922"/>
    <use xlink:href="#DejaVuSans-65" x="480.408203"/>
    <use xlink:href="#DejaVuSans-77" x="541.931641"/>
    <use xlink:href="#DejaVuSans-61" x="623.71875"/>
    <use xlink:href="#DejaVuSans-72" x="684.998047"/>
    <use xlink:href="#DejaVuSans-64" x="724.361328"/>
    <use xlink:href="#DejaVuSans-73" x="787.837891"/>
    <use xlink:href="#DejaVuSans-20" x="839.9375"/>
    <use xlink:href="#DejaVuSans-64" x="871.724609"/>
    <use xlink:href="#DejaVuSans-75" x="935.201172"/>
    <use xlink:href="#DejaVuSans-72" x="998.580078"/>
    <use xlink:href="#DejaVuSans-69" x="1039.693359"/>
    <use xlink:href="#DejaVuSans-6e" x="1067.476562"/>
    <use xlink:href="#DejaVuSans-67" x="1130.855469"/>
    <use xlink:href="#DejaVuSans-20" x="1194.332031"/>
    <use xlink:href="#DejaVuSans-74" x="1226.119141"/>
    <use xlink:href="#DejaVuSans-72" x="1265.328125"/>
    <use xlink:href="#DejaVuSans-61" x="1306.441406"/>
    <use xlink:href="#DejaVuSans-69" x="1367.720703"/>
    <use xlink:href="#DejaVuSans-6e" x="1395.503906"/>
    <use xlink:href="#DejaVuSans-69" x="1458.882812"/>
    <use xlink:href="#DejaVuSans-6e" x="1486.666016"/>
    <use xlink:href="#DejaVuSans-67" x="1550.044922"/>
   </g>
  </g>
 </g>
 <defs>
  <clipPath id="p329c6904a7">
   <rect x="74.36" y="38.88" width="346.84" height="277"/>
  </clipPath>
 </defs>
</svg>
